<?xml version="1.0" encoding="utf-8" standalone="no"?>
<!DOCTYPE svg PUBLIC "-//W3C//DTD SVG 1.1//EN"
  "http://www.w3.org/Graphics/SVG/1.1/DTD/svg11.dtd">
<svg xmlns:xlink="http://www.w3.org/1999/xlink" width="564.48pt" height="420.48pt" viewBox="0 0 564.48 420.48" xmlns="http://www.w3.org/2000/svg" version="1.1">
 <metadata>
  <rdf:RDF xmlns:dc="http://purl.org/dc/elements/1.1/" xmlns:cc="http://creativecommons.org/ns#" xmlns:rdf="http://www.w3.org/1999/02/22-rdf-syntax-ns#">
   <cc:Work>
    <dc:type rdf:resource="http://purl.org/dc/dcmitype/StillImage"/>
    <dc:date>2024-10-17T17:02:32.902146</dc:date>
    <dc:format>image/svg+xml</dc:format>
    <dc:creator>
     <cc:Agent>
      <dc:title>Matplotlib v3.9.2, https://matplotlib.org/</dc:title>
     </cc:Agent>
    </dc:creator>
   </cc:Work>
  </rdf:RDF>
 </metadata>
 <defs>
  <style type="text/css">*{stroke-linejoin: round; stroke-linecap: butt}</style>
 </defs>
 <g id="figure_1">
  <g id="patch_1">
   <path d="M 0 420.48 
L 564.48 420.48 
L 564.48 0 
L 0 0 
z
" style="fill: #ffffff"/>
  </g>
  <g id="axes_1">
   <g id="patch_2">
    <path d="M 38.053125 394.805625 
L 557.28 394.805625 
L 557.28 7.2 
L 38.053125 7.2 
z
" style="fill: #ffffff"/>
   </g>
   <g id="matplotlib.axis_1">
    <g id="xtick_1">
     <g id="line2d_1">
      <path d="M 108.85679 394.805625 
L 108.85679 7.2 
" clip-path="url(#p0733ee4a08)" style="fill: none; stroke-dasharray: 1.85,0.8; stroke-dashoffset: 0; stroke: #b0b0b0; stroke-opacity: 0.5; stroke-width: 0.5"/>
     </g>
     <g id="line2d_2">
      <defs>
       <path id="med709f0faf" d="M 0 0 
L 0 4 
" style="stroke: #000000; stroke-width: 0.8"/>
      </defs>
      <g>
       <use xlink:href="#med709f0faf" x="108.85679" y="394.805625" style="stroke: #000000; stroke-width: 0.8"/>
      </g>
     </g>
     <g id="text_1">
      <!-- −4 -->
      <g transform="translate(102.015852 410.895) scale(0.12 -0.12)">
       <defs>
        <path id="ArialMT-2212" d="M 3381 1997 
L 356 1997 
L 356 2522 
L 3381 2522 
L 3381 1997 
z
" transform="scale(0.015625)"/>
        <path id="ArialMT-34" d="M 2069 0 
L 2069 1097 
L 81 1097 
L 81 1613 
L 2172 4581 
L 2631 4581 
L 2631 1613 
L 3250 1613 
L 3250 1097 
L 2631 1097 
L 2631 0 
L 2069 0 
z
M 2069 1613 
L 2069 3678 
L 634 1613 
L 2069 1613 
z
" transform="scale(0.015625)"/>
       </defs>
       <use xlink:href="#ArialMT-2212"/>
       <use xlink:href="#ArialMT-34" x="58.398438"/>
      </g>
     </g>
    </g>
    <g id="xtick_2">
     <g id="line2d_3">
      <path d="M 203.261676 394.805625 
L 203.261676 7.2 
" clip-path="url(#p0733ee4a08)" style="fill: none; stroke-dasharray: 1.85,0.8; stroke-dashoffset: 0; stroke: #b0b0b0; stroke-opacity: 0.5; stroke-width: 0.5"/>
     </g>
     <g id="line2d_4">
      <g>
       <use xlink:href="#med709f0faf" x="203.261676" y="394.805625" style="stroke: #000000; stroke-width: 0.8"/>
      </g>
     </g>
     <g id="text_2">
      <!-- −2 -->
      <g transform="translate(196.420739 410.895) scale(0.12 -0.12)">
       <defs>
        <path id="ArialMT-32" d="M 3222 541 
L 3222 0 
L 194 0 
Q 188 203 259 391 
Q 375 700 629 1000 
Q 884 1300 1366 1694 
Q 2113 2306 2375 2664 
Q 2638 3022 2638 3341 
Q 2638 3675 2398 3904 
Q 2159 4134 1775 4134 
Q 1369 4134 1125 3890 
Q 881 3647 878 3216 
L 300 3275 
Q 359 3922 746 4261 
Q 1134 4600 1788 4600 
Q 2447 4600 2831 4234 
Q 3216 3869 3216 3328 
Q 3216 3053 3103 2787 
Q 2991 2522 2730 2228 
Q 2469 1934 1863 1422 
Q 1356 997 1212 845 
Q 1069 694 975 541 
L 3222 541 
z
" transform="scale(0.015625)"/>
       </defs>
       <use xlink:href="#ArialMT-2212"/>
       <use xlink:href="#ArialMT-32" x="58.398438"/>
      </g>
     </g>
    </g>
    <g id="xtick_3">
     <g id="line2d_5">
      <path d="M 297.666562 394.805625 
L 297.666562 7.2 
" clip-path="url(#p0733ee4a08)" style="fill: none; stroke-dasharray: 1.85,0.8; stroke-dashoffset: 0; stroke: #b0b0b0; stroke-opacity: 0.5; stroke-width: 0.5"/>
     </g>
     <g id="line2d_6">
      <g>
       <use xlink:href="#med709f0faf" x="297.666562" y="394.805625" style="stroke: #000000; stroke-width: 0.8"/>
      </g>
     </g>
     <g id="text_3">
      <!-- 0 -->
      <g transform="translate(294.33 410.895) scale(0.12 -0.12)">
       <defs>
        <path id="ArialMT-30" d="M 266 2259 
Q 266 3072 433 3567 
Q 600 4063 929 4331 
Q 1259 4600 1759 4600 
Q 2128 4600 2406 4451 
Q 2684 4303 2865 4023 
Q 3047 3744 3150 3342 
Q 3253 2941 3253 2259 
Q 3253 1453 3087 958 
Q 2922 463 2592 192 
Q 2263 -78 1759 -78 
Q 1097 -78 719 397 
Q 266 969 266 2259 
z
M 844 2259 
Q 844 1131 1108 757 
Q 1372 384 1759 384 
Q 2147 384 2411 759 
Q 2675 1134 2675 2259 
Q 2675 3391 2411 3762 
Q 2147 4134 1753 4134 
Q 1366 4134 1134 3806 
Q 844 3388 844 2259 
z
" transform="scale(0.015625)"/>
       </defs>
       <use xlink:href="#ArialMT-30"/>
      </g>
     </g>
    </g>
    <g id="xtick_4">
     <g id="line2d_7">
      <path d="M 392.071449 394.805625 
L 392.071449 7.2 
" clip-path="url(#p0733ee4a08)" style="fill: none; stroke-dasharray: 1.85,0.8; stroke-dashoffset: 0; stroke: #b0b0b0; stroke-opacity: 0.5; stroke-width: 0.5"/>
     </g>
     <g id="line2d_8">
      <g>
       <use xlink:href="#med709f0faf" x="392.071449" y="394.805625" style="stroke: #000000; stroke-width: 0.8"/>
      </g>
     </g>
     <g id="text_4">
      <!-- 2 -->
      <g transform="translate(388.734886 410.895) scale(0.12 -0.12)">
       <use xlink:href="#ArialMT-32"/>
      </g>
     </g>
    </g>
    <g id="xtick_5">
     <g id="line2d_9">
      <path d="M 486.476335 394.805625 
L 486.476335 7.2 
" clip-path="url(#p0733ee4a08)" style="fill: none; stroke-dasharray: 1.85,0.8; stroke-dashoffset: 0; stroke: #b0b0b0; stroke-opacity: 0.5; stroke-width: 0.5"/>
     </g>
     <g id="line2d_10">
      <g>
       <use xlink:href="#med709f0faf" x="486.476335" y="394.805625" style="stroke: #000000; stroke-width: 0.8"/>
      </g>
     </g>
     <g id="text_5">
      <!-- 4 -->
      <g transform="translate(483.139773 410.895) scale(0.12 -0.12)">
       <use xlink:href="#ArialMT-34"/>
      </g>
     </g>
    </g>
   </g>
   <g id="matplotlib.axis_2">
    <g id="ytick_1">
     <g id="line2d_11">
      <path d="M 38.053125 377.187188 
L 557.28 377.187188 
" clip-path="url(#p0733ee4a08)" style="fill: none; stroke-dasharray: 1.85,0.8; stroke-dashoffset: 0; stroke: #b0b0b0; stroke-opacity: 0.5; stroke-width: 0.5"/>
     </g>
     <g id="line2d_12">
      <defs>
       <path id="m2f996bba4b" d="M 0 0 
L -4 0 
" style="stroke: #000000; stroke-width: 0.8"/>
      </defs>
      <g>
       <use xlink:href="#m2f996bba4b" x="38.053125" y="377.187188" style="stroke: #000000; stroke-width: 0.8"/>
      </g>
     </g>
     <g id="text_6">
      <!-- 0.00 -->
      <g transform="translate(7.2 381.481875) scale(0.12 -0.12)">
       <defs>
        <path id="ArialMT-2e" d="M 581 0 
L 581 641 
L 1222 641 
L 1222 0 
L 581 0 
z
" transform="scale(0.015625)"/>
       </defs>
       <use xlink:href="#ArialMT-30"/>
       <use xlink:href="#ArialMT-2e" x="55.615234"/>
       <use xlink:href="#ArialMT-30" x="83.398438"/>
       <use xlink:href="#ArialMT-30" x="139.013672"/>
      </g>
     </g>
    </g>
    <g id="ytick_2">
     <g id="line2d_13">
      <path d="M 38.053125 333.010372 
L 557.28 333.010372 
" clip-path="url(#p0733ee4a08)" style="fill: none; stroke-dasharray: 1.85,0.8; stroke-dashoffset: 0; stroke: #b0b0b0; stroke-opacity: 0.5; stroke-width: 0.5"/>
     </g>
     <g id="line2d_14">
      <g>
       <use xlink:href="#m2f996bba4b" x="38.053125" y="333.010372" style="stroke: #000000; stroke-width: 0.8"/>
      </g>
     </g>
     <g id="text_7">
      <!-- 0.05 -->
      <g transform="translate(7.2 337.305059) scale(0.12 -0.12)">
       <defs>
        <path id="ArialMT-35" d="M 266 1200 
L 856 1250 
Q 922 819 1161 601 
Q 1400 384 1738 384 
Q 2144 384 2425 690 
Q 2706 997 2706 1503 
Q 2706 1984 2436 2262 
Q 2166 2541 1728 2541 
Q 1456 2541 1237 2417 
Q 1019 2294 894 2097 
L 366 2166 
L 809 4519 
L 3088 4519 
L 3088 3981 
L 1259 3981 
L 1013 2750 
Q 1425 3038 1878 3038 
Q 2478 3038 2890 2622 
Q 3303 2206 3303 1553 
Q 3303 931 2941 478 
Q 2500 -78 1738 -78 
Q 1113 -78 717 272 
Q 322 622 266 1200 
z
" transform="scale(0.015625)"/>
       </defs>
       <use xlink:href="#ArialMT-30"/>
       <use xlink:href="#ArialMT-2e" x="55.615234"/>
       <use xlink:href="#ArialMT-30" x="83.398438"/>
       <use xlink:href="#ArialMT-35" x="139.013672"/>
      </g>
     </g>
    </g>
    <g id="ytick_3">
     <g id="line2d_15">
      <path d="M 38.053125 288.833556 
L 557.28 288.833556 
" clip-path="url(#p0733ee4a08)" style="fill: none; stroke-dasharray: 1.85,0.8; stroke-dashoffset: 0; stroke: #b0b0b0; stroke-opacity: 0.5; stroke-width: 0.5"/>
     </g>
     <g id="line2d_16">
      <g>
       <use xlink:href="#m2f996bba4b" x="38.053125" y="288.833556" style="stroke: #000000; stroke-width: 0.8"/>
      </g>
     </g>
     <g id="text_8">
      <!-- 0.10 -->
      <g transform="translate(7.2 293.128244) scale(0.12 -0.12)">
       <defs>
        <path id="ArialMT-31" d="M 2384 0 
L 1822 0 
L 1822 3584 
Q 1619 3391 1289 3197 
Q 959 3003 697 2906 
L 697 3450 
Q 1169 3672 1522 3987 
Q 1875 4303 2022 4600 
L 2384 4600 
L 2384 0 
z
" transform="scale(0.015625)"/>
       </defs>
       <use xlink:href="#ArialMT-30"/>
       <use xlink:href="#ArialMT-2e" x="55.615234"/>
       <use xlink:href="#ArialMT-31" x="83.398438"/>
       <use xlink:href="#ArialMT-30" x="139.013672"/>
      </g>
     </g>
    </g>
    <g id="ytick_4">
     <g id="line2d_17">
      <path d="M 38.053125 244.65674 
L 557.28 244.65674 
" clip-path="url(#p0733ee4a08)" style="fill: none; stroke-dasharray: 1.85,0.8; stroke-dashoffset: 0; stroke: #b0b0b0; stroke-opacity: 0.5; stroke-width: 0.5"/>
     </g>
     <g id="line2d_18">
      <g>
       <use xlink:href="#m2f996bba4b" x="38.053125" y="244.65674" style="stroke: #000000; stroke-width: 0.8"/>
      </g>
     </g>
     <g id="text_9">
      <!-- 0.15 -->
      <g transform="translate(7.2 248.951428) scale(0.12 -0.12)">
       <use xlink:href="#ArialMT-30"/>
       <use xlink:href="#ArialMT-2e" x="55.615234"/>
       <use xlink:href="#ArialMT-31" x="83.398438"/>
       <use xlink:href="#ArialMT-35" x="139.013672"/>
      </g>
     </g>
    </g>
    <g id="ytick_5">
     <g id="line2d_19">
      <path d="M 38.053125 200.479925 
L 557.28 200.479925 
" clip-path="url(#p0733ee4a08)" style="fill: none; stroke-dasharray: 1.85,0.8; stroke-dashoffset: 0; stroke: #b0b0b0; stroke-opacity: 0.5; stroke-width: 0.5"/>
     </g>
     <g id="line2d_20">
      <g>
       <use xlink:href="#m2f996bba4b" x="38.053125" y="200.479925" style="stroke: #000000; stroke-width: 0.8"/>
      </g>
     </g>
     <g id="text_10">
      <!-- 0.20 -->
      <g transform="translate(7.2 204.774612) scale(0.12 -0.12)">
       <use xlink:href="#ArialMT-30"/>
       <use xlink:href="#ArialMT-2e" x="55.615234"/>
       <use xlink:href="#ArialMT-32" x="83.398438"/>
       <use xlink:href="#ArialMT-30" x="139.013672"/>
      </g>
     </g>
    </g>
    <g id="ytick_6">
     <g id="line2d_21">
      <path d="M 38.053125 156.303109 
L 557.28 156.303109 
" clip-path="url(#p0733ee4a08)" style="fill: none; stroke-dasharray: 1.85,0.8; stroke-dashoffset: 0; stroke: #b0b0b0; stroke-opacity: 0.5; stroke-width: 0.5"/>
     </g>
     <g id="line2d_22">
      <g>
       <use xlink:href="#m2f996bba4b" x="38.053125" y="156.303109" style="stroke: #000000; stroke-width: 0.8"/>
      </g>
     </g>
     <g id="text_11">
      <!-- 0.25 -->
      <g transform="translate(7.2 160.597796) scale(0.12 -0.12)">
       <use xlink:href="#ArialMT-30"/>
       <use xlink:href="#ArialMT-2e" x="55.615234"/>
       <use xlink:href="#ArialMT-32" x="83.398438"/>
       <use xlink:href="#ArialMT-35" x="139.013672"/>
      </g>
     </g>
    </g>
    <g id="ytick_7">
     <g id="line2d_23">
      <path d="M 38.053125 112.126293 
L 557.28 112.126293 
" clip-path="url(#p0733ee4a08)" style="fill: none; stroke-dasharray: 1.85,0.8; stroke-dashoffset: 0; stroke: #b0b0b0; stroke-opacity: 0.5; stroke-width: 0.5"/>
     </g>
     <g id="line2d_24">
      <g>
       <use xlink:href="#m2f996bba4b" x="38.053125" y="112.126293" style="stroke: #000000; stroke-width: 0.8"/>
      </g>
     </g>
     <g id="text_12">
      <!-- 0.30 -->
      <g transform="translate(7.2 116.420981) scale(0.12 -0.12)">
       <defs>
        <path id="ArialMT-33" d="M 269 1209 
L 831 1284 
Q 928 806 1161 595 
Q 1394 384 1728 384 
Q 2125 384 2398 659 
Q 2672 934 2672 1341 
Q 2672 1728 2419 1979 
Q 2166 2231 1775 2231 
Q 1616 2231 1378 2169 
L 1441 2663 
Q 1497 2656 1531 2656 
Q 1891 2656 2178 2843 
Q 2466 3031 2466 3422 
Q 2466 3731 2256 3934 
Q 2047 4138 1716 4138 
Q 1388 4138 1169 3931 
Q 950 3725 888 3313 
L 325 3413 
Q 428 3978 793 4289 
Q 1159 4600 1703 4600 
Q 2078 4600 2393 4439 
Q 2709 4278 2876 4000 
Q 3044 3722 3044 3409 
Q 3044 3113 2884 2869 
Q 2725 2625 2413 2481 
Q 2819 2388 3044 2092 
Q 3269 1797 3269 1353 
Q 3269 753 2831 336 
Q 2394 -81 1725 -81 
Q 1122 -81 723 278 
Q 325 638 269 1209 
z
" transform="scale(0.015625)"/>
       </defs>
       <use xlink:href="#ArialMT-30"/>
       <use xlink:href="#ArialMT-2e" x="55.615234"/>
       <use xlink:href="#ArialMT-33" x="83.398438"/>
       <use xlink:href="#ArialMT-30" x="139.013672"/>
      </g>
     </g>
    </g>
    <g id="ytick_8">
     <g id="line2d_25">
      <path d="M 38.053125 67.949477 
L 557.28 67.949477 
" clip-path="url(#p0733ee4a08)" style="fill: none; stroke-dasharray: 1.85,0.8; stroke-dashoffset: 0; stroke: #b0b0b0; stroke-opacity: 0.5; stroke-width: 0.5"/>
     </g>
     <g id="line2d_26">
      <g>
       <use xlink:href="#m2f996bba4b" x="38.053125" y="67.949477" style="stroke: #000000; stroke-width: 0.8"/>
      </g>
     </g>
     <g id="text_13">
      <!-- 0.35 -->
      <g transform="translate(7.2 72.244165) scale(0.12 -0.12)">
       <use xlink:href="#ArialMT-30"/>
       <use xlink:href="#ArialMT-2e" x="55.615234"/>
       <use xlink:href="#ArialMT-33" x="83.398438"/>
       <use xlink:href="#ArialMT-35" x="139.013672"/>
      </g>
     </g>
    </g>
    <g id="ytick_9">
     <g id="line2d_27">
      <path d="M 38.053125 23.772662 
L 557.28 23.772662 
" clip-path="url(#p0733ee4a08)" style="fill: none; stroke-dasharray: 1.85,0.8; stroke-dashoffset: 0; stroke: #b0b0b0; stroke-opacity: 0.5; stroke-width: 0.5"/>
     </g>
     <g id="line2d_28">
      <g>
       <use xlink:href="#m2f996bba4b" x="38.053125" y="23.772662" style="stroke: #000000; stroke-width: 0.8"/>
      </g>
     </g>
     <g id="text_14">
      <!-- 0.40 -->
      <g transform="translate(7.2 28.067349) scale(0.12 -0.12)">
       <use xlink:href="#ArialMT-30"/>
       <use xlink:href="#ArialMT-2e" x="55.615234"/>
       <use xlink:href="#ArialMT-34" x="83.398438"/>
       <use xlink:href="#ArialMT-30" x="139.013672"/>
      </g>
     </g>
    </g>
   </g>
   <g id="line2d_29">
    <path d="M 61.654347 377.185874 
L 106.722006 377.088612 
L 120.953898 376.868237 
L 130.441827 376.523813 
L 137.557773 376.068341 
L 144.673719 375.342545 
L 149.417683 374.645103 
L 154.161647 373.719171 
L 158.905611 372.503526 
L 163.649576 370.925329 
L 166.021558 369.974169 
L 168.39354 368.899484 
L 170.765522 367.688695 
L 173.137504 366.328471 
L 175.509486 364.804765 
L 177.881468 363.102862 
L 180.25345 361.207442 
L 182.625432 359.102669 
L 184.997414 356.772282 
L 187.369396 354.19972 
L 189.741378 351.36826 
L 192.11336 348.261173 
L 194.485342 344.861906 
L 196.857325 341.154275 
L 199.229307 337.122686 
L 201.601289 332.752366 
L 203.973271 328.029611 
L 206.345253 322.942051 
L 208.717235 317.478919 
L 211.089217 311.631334 
L 213.461199 305.392585 
L 215.833181 298.758411 
L 218.205163 291.727282 
L 220.577145 284.300666 
L 225.321109 268.283331 
L 230.065074 250.787175 
L 234.809038 231.954535 
L 239.553002 211.993015 
L 246.668948 180.550144 
L 258.528858 127.239276 
L 263.272822 106.886934 
L 268.016787 87.815063 
L 270.388769 78.912225 
L 272.760751 70.510876 
L 275.132733 62.668115 
L 277.504715 55.438291 
L 279.876697 48.87238 
L 282.248679 43.017387 
L 284.620661 37.915786 
L 286.992643 33.605008 
L 289.364625 30.116982 
L 291.736607 27.477745 
L 294.108589 25.707113 
L 296.480571 24.818438 
L 298.852554 24.818438 
L 301.224536 25.707113 
L 303.596518 27.477745 
L 305.9685 30.116982 
L 308.340482 33.605008 
L 310.712464 37.915786 
L 313.084446 43.017387 
L 315.456428 48.87238 
L 317.82841 55.438291 
L 320.200392 62.668115 
L 322.572374 70.510876 
L 324.944356 78.912225 
L 327.316338 87.815063 
L 332.060303 106.886934 
L 336.804267 127.239276 
L 343.920213 159.100562 
L 353.408141 201.671906 
L 358.152105 222.099316 
L 362.896069 241.526495 
L 367.640034 259.712709 
L 372.383998 276.483281 
L 374.75598 284.300666 
L 377.127962 291.727282 
L 379.499944 298.758411 
L 381.871926 305.392585 
L 384.243908 311.631334 
L 386.61589 317.478919 
L 388.987872 322.942051 
L 391.359854 328.029611 
L 393.731836 332.752366 
L 396.103818 337.122686 
L 398.4758 341.154275 
L 400.847783 344.861906 
L 403.219765 348.261173 
L 405.591747 351.36826 
L 407.963729 354.19972 
L 410.335711 356.772282 
L 412.707693 359.102669 
L 415.079675 361.207442 
L 417.451657 363.102862 
L 419.823639 364.804765 
L 422.195621 366.328471 
L 424.567603 367.688695 
L 426.939585 368.899484 
L 429.311567 369.974169 
L 434.055531 371.764773 
L 438.799496 373.151833 
L 443.54346 374.214263 
L 448.287424 375.018987 
L 453.031388 375.621777 
L 460.147334 376.244872 
L 467.26328 376.632696 
L 476.751209 376.923268 
L 490.983101 377.106846 
L 519.446886 377.18152 
L 533.678778 377.185874 
L 533.678778 377.185874 
" clip-path="url(#p0733ee4a08)" style="fill: none; stroke: #1f77b4; stroke-width: 1.5; stroke-linecap: square"/>
   </g>
   <g id="line2d_30">
    <path d="M 61.654347 377.187188 
L 166.021558 377.082815 
L 175.509486 376.879605 
L 182.625432 376.531096 
L 187.369396 376.127122 
L 192.11336 375.508663 
L 196.857325 374.582538 
L 199.229307 373.967083 
L 201.601289 373.226255 
L 203.973271 372.339535 
L 206.345253 371.284196 
L 208.717235 370.03532 
L 211.089217 368.565873 
L 213.461199 366.846864 
L 215.833181 364.847578 
L 218.205163 362.535915 
L 220.577145 359.878827 
L 222.949127 356.842868 
L 225.321109 353.394853 
L 227.693091 349.50263 
L 230.065074 345.135953 
L 232.437056 340.267451 
L 234.809038 334.873676 
L 237.18102 328.936201 
L 239.553002 322.442753 
L 241.924984 315.388336 
L 244.296966 307.776319 
L 246.668948 299.619436 
L 249.04093 290.940669 
L 253.784894 272.164708 
L 258.528858 251.85877 
L 272.760751 188.513649 
L 275.132733 178.740203 
L 277.504715 169.511975 
L 279.876697 160.949458 
L 282.248679 153.168148 
L 284.620661 146.275967 
L 286.992643 140.370778 
L 289.364625 135.538079 
L 291.736607 131.848945 
L 294.108589 129.358286 
L 296.480571 128.10349 
L 298.852554 128.10349 
L 301.224536 129.358286 
L 303.596518 131.848945 
L 305.9685 135.538079 
L 308.340482 140.370778 
L 310.712464 146.275967 
L 313.084446 153.168148 
L 315.456428 160.949458 
L 317.82841 169.511975 
L 320.200392 178.740203 
L 324.944356 198.709417 
L 332.060303 230.617744 
L 336.804267 251.85877 
L 341.548231 272.164708 
L 346.292195 290.940669 
L 348.664177 299.619436 
L 351.036159 307.776319 
L 353.408141 315.388336 
L 355.780123 322.442753 
L 358.152105 328.936201 
L 360.524087 334.873676 
L 362.896069 340.267451 
L 365.268051 345.135953 
L 367.640034 349.50263 
L 370.012016 353.394853 
L 372.383998 356.842868 
L 374.75598 359.878827 
L 377.127962 362.535915 
L 379.499944 364.847578 
L 381.871926 366.846864 
L 384.243908 368.565873 
L 386.61589 370.03532 
L 388.987872 371.284196 
L 391.359854 372.339535 
L 393.731836 373.226255 
L 396.103818 373.967083 
L 400.847783 375.090976 
L 405.591747 375.849893 
L 410.335711 376.351112 
L 417.451657 376.789243 
L 426.939585 377.049397 
L 441.171478 377.16306 
L 490.983101 377.187175 
L 533.678778 377.187188 
L 533.678778 377.187188 
" clip-path="url(#p0733ee4a08)" style="fill: none; stroke: #ff7f0e; stroke-width: 1.5; stroke-linecap: square"/>
   </g>
   <g id="line2d_31">
    <path d="M 61.654347 377.127278 
L 83.002185 376.934488 
L 97.234078 376.575626 
L 106.722006 376.121306 
L 113.837952 375.598701 
L 120.953898 374.855457 
L 128.069845 373.815922 
L 132.813809 372.912735 
L 137.557773 371.803951 
L 142.301737 370.453049 
L 147.045701 368.819679 
L 151.789665 366.859912 
L 156.533629 364.526685 
L 161.277594 361.77048 
L 166.021558 358.540235 
L 170.765522 354.784526 
L 173.137504 352.693802 
L 175.509486 350.453005 
L 177.881468 348.05629 
L 180.25345 345.498101 
L 182.625432 342.773243 
L 184.997414 339.876945 
L 189.741378 333.553496 
L 194.485342 326.500796 
L 199.229307 318.703288 
L 203.973271 310.159104 
L 208.717235 300.88222 
L 213.461199 290.904363 
L 218.205163 280.276555 
L 222.949127 269.070175 
L 227.693091 257.377434 
L 234.809038 239.178633 
L 251.412912 196.213328 
L 256.156876 184.582356 
L 260.90084 173.579562 
L 265.644805 163.392734 
L 268.016787 158.662275 
L 270.388769 154.20285 
L 272.760751 150.035145 
L 275.132733 146.178764 
L 277.504715 142.652075 
L 279.876697 139.472068 
L 282.248679 136.654211 
L 284.620661 134.212335 
L 286.992643 132.158512 
L 289.364625 130.502961 
L 291.736607 129.253961 
L 294.108589 128.417783 
L 296.480571 127.998638 
L 298.852554 127.998638 
L 301.224536 128.417783 
L 303.596518 129.253961 
L 305.9685 130.502961 
L 308.340482 132.158512 
L 310.712464 134.212335 
L 313.084446 136.654211 
L 315.456428 139.472068 
L 317.82841 142.652075 
L 320.200392 146.178764 
L 322.572374 150.035145 
L 324.944356 154.20285 
L 327.316338 158.662275 
L 329.68832 163.392734 
L 334.432285 173.579562 
L 339.176249 184.582356 
L 343.920213 196.213328 
L 351.036159 214.424267 
L 365.268051 251.383153 
L 372.383998 269.070175 
L 377.127962 280.276555 
L 381.871926 290.904363 
L 386.61589 300.88222 
L 391.359854 310.159104 
L 396.103818 318.703288 
L 400.847783 326.500796 
L 405.591747 333.553496 
L 410.335711 339.876945 
L 415.079675 345.498101 
L 419.823639 350.453005 
L 424.567603 354.784526 
L 429.311567 358.540235 
L 434.055531 361.77048 
L 438.799496 364.526685 
L 443.54346 366.859912 
L 448.287424 368.819679 
L 453.031388 370.453049 
L 457.775352 371.803951 
L 462.519316 372.912735 
L 467.26328 373.815922 
L 472.007245 374.546111 
L 479.123191 375.378849 
L 486.239137 375.967641 
L 495.727065 376.482731 
L 507.586976 376.845622 
L 524.19085 377.071674 
L 533.678778 377.127278 
L 533.678778 377.127278 
" clip-path="url(#p0733ee4a08)" style="fill: none; stroke: #2ca02c; stroke-width: 1.5; stroke-linecap: square"/>
   </g>
   <g id="patch_3">
    <path d="M 38.053125 394.805625 
L 38.053125 7.2 
" style="fill: none; stroke: #000000; stroke-width: 0.8; stroke-linejoin: miter; stroke-linecap: square"/>
   </g>
   <g id="patch_4">
    <path d="M 38.053125 394.805625 
L 557.28 394.805625 
" style="fill: none; stroke: #000000; stroke-width: 0.8; stroke-linejoin: miter; stroke-linecap: square"/>
   </g>
  </g>
 </g>
 <defs>
  <clipPath id="p0733ee4a08">
   <rect x="38.053125" y="7.2" width="519.226875" height="387.605625"/>
  </clipPath>
 </defs>
</svg>
