<?xml version="1.0" encoding="utf-8" standalone="no"?>
<!DOCTYPE svg PUBLIC "-//W3C//DTD SVG 1.1//EN"
  "http://www.w3.org/Graphics/SVG/1.1/DTD/svg11.dtd">
<svg xmlns:xlink="http://www.w3.org/1999/xlink" width="420.48pt" height="276.48pt" viewBox="0 0 420.48 276.48" xmlns="http://www.w3.org/2000/svg" version="1.1">
 <metadata>
  <rdf:RDF xmlns:dc="http://purl.org/dc/elements/1.1/" xmlns:cc="http://creativecommons.org/ns#" xmlns:rdf="http://www.w3.org/1999/02/22-rdf-syntax-ns#">
   <cc:Work>
    <dc:type rdf:resource="http://purl.org/dc/dcmitype/StillImage"/>
    <dc:date>2024-10-17T21:17:25.675172</dc:date>
    <dc:format>image/svg+xml</dc:format>
    <dc:creator>
     <cc:Agent>
      <dc:title>Matplotlib v3.9.2, https://matplotlib.org/</dc:title>
     </cc:Agent>
    </dc:creator>
   </cc:Work>
  </rdf:RDF>
 </metadata>
 <defs>
  <style type="text/css">*{stroke-linejoin: round; stroke-linecap: butt}</style>
 </defs>
 <g id="figure_1">
  <g id="patch_1">
   <path d="M 0 276.48 
L 420.48 276.48 
L 420.48 0 
L 0 0 
z
" style="fill: #ffffff"/>
  </g>
  <g id="axes_1">
   <g id="patch_2">
    <path d="M 38.053125 250.805625 
L 413.28 250.805625 
L 413.28 7.2 
L 38.053125 7.2 
z
" style="fill: #ffffff"/>
   </g>
   <g id="matplotlib.axis_1">
    <g id="xtick_1">
     <g id="line2d_1">
      <path d="M 89.220426 250.805625 
L 89.220426 7.2 
" clip-path="url(#pd5133f5e3c)" style="fill: none; stroke-dasharray: 1.85,0.8; stroke-dashoffset: 0; stroke: #b0b0b0; stroke-opacity: 0.5; stroke-width: 0.5"/>
     </g>
     <g id="line2d_2">
      <defs>
       <path id="m11dc8f9acb" d="M 0 0 
L 0 4 
" style="stroke: #000000; stroke-width: 0.8"/>
      </defs>
      <g>
       <use xlink:href="#m11dc8f9acb" x="89.220426" y="250.805625" style="stroke: #000000; stroke-width: 0.8"/>
      </g>
     </g>
     <g id="text_1">
      <!-- −4 -->
      <g transform="translate(82.379489 266.895) scale(0.12 -0.12)">
       <defs>
        <path id="ArialMT-2212" d="M 3381 1997 
L 356 1997 
L 356 2522 
L 3381 2522 
L 3381 1997 
z
" transform="scale(0.015625)"/>
        <path id="ArialMT-34" d="M 2069 0 
L 2069 1097 
L 81 1097 
L 81 1613 
L 2172 4581 
L 2631 4581 
L 2631 1613 
L 3250 1613 
L 3250 1097 
L 2631 1097 
L 2631 0 
L 2069 0 
z
M 2069 1613 
L 2069 3678 
L 634 1613 
L 2069 1613 
z
" transform="scale(0.015625)"/>
       </defs>
       <use xlink:href="#ArialMT-2212"/>
       <use xlink:href="#ArialMT-34" x="58.398438"/>
      </g>
     </g>
    </g>
    <g id="xtick_2">
     <g id="line2d_3">
      <path d="M 157.443494 250.805625 
L 157.443494 7.2 
" clip-path="url(#pd5133f5e3c)" style="fill: none; stroke-dasharray: 1.85,0.8; stroke-dashoffset: 0; stroke: #b0b0b0; stroke-opacity: 0.5; stroke-width: 0.5"/>
     </g>
     <g id="line2d_4">
      <g>
       <use xlink:href="#m11dc8f9acb" x="157.443494" y="250.805625" style="stroke: #000000; stroke-width: 0.8"/>
      </g>
     </g>
     <g id="text_2">
      <!-- −2 -->
      <g transform="translate(150.602557 266.895) scale(0.12 -0.12)">
       <defs>
        <path id="ArialMT-32" d="M 3222 541 
L 3222 0 
L 194 0 
Q 188 203 259 391 
Q 375 700 629 1000 
Q 884 1300 1366 1694 
Q 2113 2306 2375 2664 
Q 2638 3022 2638 3341 
Q 2638 3675 2398 3904 
Q 2159 4134 1775 4134 
Q 1369 4134 1125 3890 
Q 881 3647 878 3216 
L 300 3275 
Q 359 3922 746 4261 
Q 1134 4600 1788 4600 
Q 2447 4600 2831 4234 
Q 3216 3869 3216 3328 
Q 3216 3053 3103 2787 
Q 2991 2522 2730 2228 
Q 2469 1934 1863 1422 
Q 1356 997 1212 845 
Q 1069 694 975 541 
L 3222 541 
z
" transform="scale(0.015625)"/>
       </defs>
       <use xlink:href="#ArialMT-2212"/>
       <use xlink:href="#ArialMT-32" x="58.398438"/>
      </g>
     </g>
    </g>
    <g id="xtick_3">
     <g id="line2d_5">
      <path d="M 225.666562 250.805625 
L 225.666562 7.2 
" clip-path="url(#pd5133f5e3c)" style="fill: none; stroke-dasharray: 1.85,0.8; stroke-dashoffset: 0; stroke: #b0b0b0; stroke-opacity: 0.5; stroke-width: 0.5"/>
     </g>
     <g id="line2d_6">
      <g>
       <use xlink:href="#m11dc8f9acb" x="225.666562" y="250.805625" style="stroke: #000000; stroke-width: 0.8"/>
      </g>
     </g>
     <g id="text_3">
      <!-- 0 -->
      <g transform="translate(222.33 266.895) scale(0.12 -0.12)">
       <defs>
        <path id="ArialMT-30" d="M 266 2259 
Q 266 3072 433 3567 
Q 600 4063 929 4331 
Q 1259 4600 1759 4600 
Q 2128 4600 2406 4451 
Q 2684 4303 2865 4023 
Q 3047 3744 3150 3342 
Q 3253 2941 3253 2259 
Q 3253 1453 3087 958 
Q 2922 463 2592 192 
Q 2263 -78 1759 -78 
Q 1097 -78 719 397 
Q 266 969 266 2259 
z
M 844 2259 
Q 844 1131 1108 757 
Q 1372 384 1759 384 
Q 2147 384 2411 759 
Q 2675 1134 2675 2259 
Q 2675 3391 2411 3762 
Q 2147 4134 1753 4134 
Q 1366 4134 1134 3806 
Q 844 3388 844 2259 
z
" transform="scale(0.015625)"/>
       </defs>
       <use xlink:href="#ArialMT-30"/>
      </g>
     </g>
    </g>
    <g id="xtick_4">
     <g id="line2d_7">
      <path d="M 293.889631 250.805625 
L 293.889631 7.2 
" clip-path="url(#pd5133f5e3c)" style="fill: none; stroke-dasharray: 1.85,0.8; stroke-dashoffset: 0; stroke: #b0b0b0; stroke-opacity: 0.5; stroke-width: 0.5"/>
     </g>
     <g id="line2d_8">
      <g>
       <use xlink:href="#m11dc8f9acb" x="293.889631" y="250.805625" style="stroke: #000000; stroke-width: 0.8"/>
      </g>
     </g>
     <g id="text_4">
      <!-- 2 -->
      <g transform="translate(290.553068 266.895) scale(0.12 -0.12)">
       <use xlink:href="#ArialMT-32"/>
      </g>
     </g>
    </g>
    <g id="xtick_5">
     <g id="line2d_9">
      <path d="M 362.112699 250.805625 
L 362.112699 7.2 
" clip-path="url(#pd5133f5e3c)" style="fill: none; stroke-dasharray: 1.85,0.8; stroke-dashoffset: 0; stroke: #b0b0b0; stroke-opacity: 0.5; stroke-width: 0.5"/>
     </g>
     <g id="line2d_10">
      <g>
       <use xlink:href="#m11dc8f9acb" x="362.112699" y="250.805625" style="stroke: #000000; stroke-width: 0.8"/>
      </g>
     </g>
     <g id="text_5">
      <!-- 4 -->
      <g transform="translate(358.776136 266.895) scale(0.12 -0.12)">
       <use xlink:href="#ArialMT-34"/>
      </g>
     </g>
    </g>
   </g>
   <g id="matplotlib.axis_2">
    <g id="ytick_1">
     <g id="line2d_11">
      <path d="M 38.053125 239.732642 
L 413.28 239.732642 
" clip-path="url(#pd5133f5e3c)" style="fill: none; stroke-dasharray: 1.85,0.8; stroke-dashoffset: 0; stroke: #b0b0b0; stroke-opacity: 0.5; stroke-width: 0.5"/>
     </g>
     <g id="line2d_12">
      <defs>
       <path id="m19d2b3b8bf" d="M 0 0 
L -4 0 
" style="stroke: #000000; stroke-width: 0.8"/>
      </defs>
      <g>
       <use xlink:href="#m19d2b3b8bf" x="38.053125" y="239.732642" style="stroke: #000000; stroke-width: 0.8"/>
      </g>
     </g>
     <g id="text_6">
      <!-- 0.00 -->
      <g transform="translate(7.2 244.02733) scale(0.12 -0.12)">
       <defs>
        <path id="ArialMT-2e" d="M 581 0 
L 581 641 
L 1222 641 
L 1222 0 
L 581 0 
z
" transform="scale(0.015625)"/>
       </defs>
       <use xlink:href="#ArialMT-30"/>
       <use xlink:href="#ArialMT-2e" x="55.615234"/>
       <use xlink:href="#ArialMT-30" x="83.398438"/>
       <use xlink:href="#ArialMT-30" x="139.013672"/>
      </g>
     </g>
    </g>
    <g id="ytick_2">
     <g id="line2d_13">
      <path d="M 38.053125 211.968027 
L 413.28 211.968027 
" clip-path="url(#pd5133f5e3c)" style="fill: none; stroke-dasharray: 1.85,0.8; stroke-dashoffset: 0; stroke: #b0b0b0; stroke-opacity: 0.5; stroke-width: 0.5"/>
     </g>
     <g id="line2d_14">
      <g>
       <use xlink:href="#m19d2b3b8bf" x="38.053125" y="211.968027" style="stroke: #000000; stroke-width: 0.8"/>
      </g>
     </g>
     <g id="text_7">
      <!-- 0.05 -->
      <g transform="translate(7.2 216.262715) scale(0.12 -0.12)">
       <defs>
        <path id="ArialMT-35" d="M 266 1200 
L 856 1250 
Q 922 819 1161 601 
Q 1400 384 1738 384 
Q 2144 384 2425 690 
Q 2706 997 2706 1503 
Q 2706 1984 2436 2262 
Q 2166 2541 1728 2541 
Q 1456 2541 1237 2417 
Q 1019 2294 894 2097 
L 366 2166 
L 809 4519 
L 3088 4519 
L 3088 3981 
L 1259 3981 
L 1013 2750 
Q 1425 3038 1878 3038 
Q 2478 3038 2890 2622 
Q 3303 2206 3303 1553 
Q 3303 931 2941 478 
Q 2500 -78 1738 -78 
Q 1113 -78 717 272 
Q 322 622 266 1200 
z
" transform="scale(0.015625)"/>
       </defs>
       <use xlink:href="#ArialMT-30"/>
       <use xlink:href="#ArialMT-2e" x="55.615234"/>
       <use xlink:href="#ArialMT-30" x="83.398438"/>
       <use xlink:href="#ArialMT-35" x="139.013672"/>
      </g>
     </g>
    </g>
    <g id="ytick_3">
     <g id="line2d_15">
      <path d="M 38.053125 184.203413 
L 413.28 184.203413 
" clip-path="url(#pd5133f5e3c)" style="fill: none; stroke-dasharray: 1.85,0.8; stroke-dashoffset: 0; stroke: #b0b0b0; stroke-opacity: 0.5; stroke-width: 0.5"/>
     </g>
     <g id="line2d_16">
      <g>
       <use xlink:href="#m19d2b3b8bf" x="38.053125" y="184.203413" style="stroke: #000000; stroke-width: 0.8"/>
      </g>
     </g>
     <g id="text_8">
      <!-- 0.10 -->
      <g transform="translate(7.2 188.4981) scale(0.12 -0.12)">
       <defs>
        <path id="ArialMT-31" d="M 2384 0 
L 1822 0 
L 1822 3584 
Q 1619 3391 1289 3197 
Q 959 3003 697 2906 
L 697 3450 
Q 1169 3672 1522 3987 
Q 1875 4303 2022 4600 
L 2384 4600 
L 2384 0 
z
" transform="scale(0.015625)"/>
       </defs>
       <use xlink:href="#ArialMT-30"/>
       <use xlink:href="#ArialMT-2e" x="55.615234"/>
       <use xlink:href="#ArialMT-31" x="83.398438"/>
       <use xlink:href="#ArialMT-30" x="139.013672"/>
      </g>
     </g>
    </g>
    <g id="ytick_4">
     <g id="line2d_17">
      <path d="M 38.053125 156.438798 
L 413.28 156.438798 
" clip-path="url(#pd5133f5e3c)" style="fill: none; stroke-dasharray: 1.85,0.8; stroke-dashoffset: 0; stroke: #b0b0b0; stroke-opacity: 0.5; stroke-width: 0.5"/>
     </g>
     <g id="line2d_18">
      <g>
       <use xlink:href="#m19d2b3b8bf" x="38.053125" y="156.438798" style="stroke: #000000; stroke-width: 0.8"/>
      </g>
     </g>
     <g id="text_9">
      <!-- 0.15 -->
      <g transform="translate(7.2 160.733486) scale(0.12 -0.12)">
       <use xlink:href="#ArialMT-30"/>
       <use xlink:href="#ArialMT-2e" x="55.615234"/>
       <use xlink:href="#ArialMT-31" x="83.398438"/>
       <use xlink:href="#ArialMT-35" x="139.013672"/>
      </g>
     </g>
    </g>
    <g id="ytick_5">
     <g id="line2d_19">
      <path d="M 38.053125 128.674183 
L 413.28 128.674183 
" clip-path="url(#pd5133f5e3c)" style="fill: none; stroke-dasharray: 1.85,0.8; stroke-dashoffset: 0; stroke: #b0b0b0; stroke-opacity: 0.5; stroke-width: 0.5"/>
     </g>
     <g id="line2d_20">
      <g>
       <use xlink:href="#m19d2b3b8bf" x="38.053125" y="128.674183" style="stroke: #000000; stroke-width: 0.8"/>
      </g>
     </g>
     <g id="text_10">
      <!-- 0.20 -->
      <g transform="translate(7.2 132.968871) scale(0.12 -0.12)">
       <use xlink:href="#ArialMT-30"/>
       <use xlink:href="#ArialMT-2e" x="55.615234"/>
       <use xlink:href="#ArialMT-32" x="83.398438"/>
       <use xlink:href="#ArialMT-30" x="139.013672"/>
      </g>
     </g>
    </g>
    <g id="ytick_6">
     <g id="line2d_21">
      <path d="M 38.053125 100.909569 
L 413.28 100.909569 
" clip-path="url(#pd5133f5e3c)" style="fill: none; stroke-dasharray: 1.85,0.8; stroke-dashoffset: 0; stroke: #b0b0b0; stroke-opacity: 0.5; stroke-width: 0.5"/>
     </g>
     <g id="line2d_22">
      <g>
       <use xlink:href="#m19d2b3b8bf" x="38.053125" y="100.909569" style="stroke: #000000; stroke-width: 0.8"/>
      </g>
     </g>
     <g id="text_11">
      <!-- 0.25 -->
      <g transform="translate(7.2 105.204256) scale(0.12 -0.12)">
       <use xlink:href="#ArialMT-30"/>
       <use xlink:href="#ArialMT-2e" x="55.615234"/>
       <use xlink:href="#ArialMT-32" x="83.398438"/>
       <use xlink:href="#ArialMT-35" x="139.013672"/>
      </g>
     </g>
    </g>
    <g id="ytick_7">
     <g id="line2d_23">
      <path d="M 38.053125 73.144954 
L 413.28 73.144954 
" clip-path="url(#pd5133f5e3c)" style="fill: none; stroke-dasharray: 1.85,0.8; stroke-dashoffset: 0; stroke: #b0b0b0; stroke-opacity: 0.5; stroke-width: 0.5"/>
     </g>
     <g id="line2d_24">
      <g>
       <use xlink:href="#m19d2b3b8bf" x="38.053125" y="73.144954" style="stroke: #000000; stroke-width: 0.8"/>
      </g>
     </g>
     <g id="text_12">
      <!-- 0.30 -->
      <g transform="translate(7.2 77.439642) scale(0.12 -0.12)">
       <defs>
        <path id="ArialMT-33" d="M 269 1209 
L 831 1284 
Q 928 806 1161 595 
Q 1394 384 1728 384 
Q 2125 384 2398 659 
Q 2672 934 2672 1341 
Q 2672 1728 2419 1979 
Q 2166 2231 1775 2231 
Q 1616 2231 1378 2169 
L 1441 2663 
Q 1497 2656 1531 2656 
Q 1891 2656 2178 2843 
Q 2466 3031 2466 3422 
Q 2466 3731 2256 3934 
Q 2047 4138 1716 4138 
Q 1388 4138 1169 3931 
Q 950 3725 888 3313 
L 325 3413 
Q 428 3978 793 4289 
Q 1159 4600 1703 4600 
Q 2078 4600 2393 4439 
Q 2709 4278 2876 4000 
Q 3044 3722 3044 3409 
Q 3044 3113 2884 2869 
Q 2725 2625 2413 2481 
Q 2819 2388 3044 2092 
Q 3269 1797 3269 1353 
Q 3269 753 2831 336 
Q 2394 -81 1725 -81 
Q 1122 -81 723 278 
Q 325 638 269 1209 
z
" transform="scale(0.015625)"/>
       </defs>
       <use xlink:href="#ArialMT-30"/>
       <use xlink:href="#ArialMT-2e" x="55.615234"/>
       <use xlink:href="#ArialMT-33" x="83.398438"/>
       <use xlink:href="#ArialMT-30" x="139.013672"/>
      </g>
     </g>
    </g>
    <g id="ytick_8">
     <g id="line2d_25">
      <path d="M 38.053125 45.38034 
L 413.28 45.38034 
" clip-path="url(#pd5133f5e3c)" style="fill: none; stroke-dasharray: 1.85,0.8; stroke-dashoffset: 0; stroke: #b0b0b0; stroke-opacity: 0.5; stroke-width: 0.5"/>
     </g>
     <g id="line2d_26">
      <g>
       <use xlink:href="#m19d2b3b8bf" x="38.053125" y="45.38034" style="stroke: #000000; stroke-width: 0.8"/>
      </g>
     </g>
     <g id="text_13">
      <!-- 0.35 -->
      <g transform="translate(7.2 49.675027) scale(0.12 -0.12)">
       <use xlink:href="#ArialMT-30"/>
       <use xlink:href="#ArialMT-2e" x="55.615234"/>
       <use xlink:href="#ArialMT-33" x="83.398438"/>
       <use xlink:href="#ArialMT-35" x="139.013672"/>
      </g>
     </g>
    </g>
    <g id="ytick_9">
     <g id="line2d_27">
      <path d="M 38.053125 17.615725 
L 413.28 17.615725 
" clip-path="url(#pd5133f5e3c)" style="fill: none; stroke-dasharray: 1.85,0.8; stroke-dashoffset: 0; stroke: #b0b0b0; stroke-opacity: 0.5; stroke-width: 0.5"/>
     </g>
     <g id="line2d_28">
      <g>
       <use xlink:href="#m19d2b3b8bf" x="38.053125" y="17.615725" style="stroke: #000000; stroke-width: 0.8"/>
      </g>
     </g>
     <g id="text_14">
      <!-- 0.40 -->
      <g transform="translate(7.2 21.910412) scale(0.12 -0.12)">
       <use xlink:href="#ArialMT-30"/>
       <use xlink:href="#ArialMT-2e" x="55.615234"/>
       <use xlink:href="#ArialMT-34" x="83.398438"/>
       <use xlink:href="#ArialMT-30" x="139.013672"/>
      </g>
     </g>
    </g>
   </g>
   <g id="line2d_29">
    <path d="M 55.108892 239.731816 
L 92.820136 239.619928 
L 103.10502 239.384151 
L 109.96161 239.02946 
L 115.104053 238.573306 
L 120.246495 237.864193 
L 123.67479 237.196469 
L 127.103085 236.324718 
L 130.531379 235.199344 
L 133.959674 233.76295 
L 137.387969 231.950434 
L 140.816264 229.689558 
L 142.530412 228.366733 
L 144.244559 226.902112 
L 145.958706 225.285286 
L 147.672854 223.505747 
L 149.387001 221.552979 
L 151.101149 219.416578 
L 152.815296 217.086376 
L 154.529444 214.552569 
L 156.243591 211.805874 
L 157.957739 208.837677 
L 159.671886 205.640205 
L 163.100181 198.531551 
L 166.528476 190.441069 
L 169.956771 181.354544 
L 173.385066 171.287836 
L 176.81336 160.291705 
L 180.241655 148.45561 
L 183.66995 135.910027 
L 188.812393 116.148548 
L 199.097277 76.166443 
L 202.525572 63.73893 
L 205.953867 52.270299 
L 209.382162 42.061065 
L 211.096309 37.517204 
L 212.810457 33.390606 
L 214.524604 29.710811 
L 216.238752 26.504514 
L 217.952899 23.79524 
L 219.667046 21.603057 
L 221.381194 19.944327 
L 223.095341 18.831505 
L 224.809489 18.272983 
L 226.523636 18.272983 
L 228.237784 18.831505 
L 229.951931 19.944327 
L 231.666079 21.603057 
L 233.380226 23.79524 
L 235.094373 26.504514 
L 236.808521 29.710811 
L 238.522668 33.390606 
L 240.236816 37.517204 
L 241.950963 42.061065 
L 243.665111 46.990149 
L 247.093406 57.865629 
L 250.5217 69.852078 
L 253.949995 82.643288 
L 260.806585 109.418136 
L 267.663175 135.910027 
L 271.09147 148.45561 
L 274.519765 160.291705 
L 277.948059 171.287836 
L 281.376354 181.354544 
L 284.804649 190.441069 
L 288.232944 198.531551 
L 291.661239 205.640205 
L 295.089534 211.805874 
L 296.803681 214.552569 
L 298.517829 217.086376 
L 300.231976 219.416578 
L 301.946124 221.552979 
L 303.660271 223.505747 
L 305.374419 225.285286 
L 308.802713 228.366733 
L 312.231008 230.880807 
L 315.659303 232.908065 
L 319.087598 234.523917 
L 322.515893 235.797137 
L 325.944188 236.789015 
L 329.372483 237.553034 
L 332.800778 238.134971 
L 337.94322 238.7488 
L 343.085662 239.140407 
L 349.942252 239.442085 
L 360.227137 239.640079 
L 379.082759 239.723666 
L 396.224233 239.731816 
L 396.224233 239.731816 
" clip-path="url(#pd5133f5e3c)" style="fill: none; stroke: #1f77b4; stroke-width: 1.5; stroke-linecap: square"/>
   </g>
   <g id="line2d_30">
    <path d="M 55.108892 239.732642 
L 132.245527 239.646042 
L 140.816264 239.410693 
L 145.958706 239.066403 
L 149.387001 238.677709 
L 152.815296 238.09565 
L 156.243591 237.243242 
L 159.671886 236.022681 
L 161.386033 235.237776 
L 163.100181 234.314246 
L 164.814328 233.233869 
L 166.528476 231.977341 
L 168.242623 230.524488 
L 169.956771 228.854539 
L 171.670918 226.946474 
L 173.385066 224.779437 
L 175.099213 222.33322 
L 176.81336 219.588814 
L 178.527508 216.529017 
L 180.241655 213.139092 
L 181.955803 209.407458 
L 183.66995 205.326402 
L 185.384098 200.892783 
L 187.098245 196.108719 
L 190.52654 185.527708 
L 193.954835 173.727236 
L 197.38313 160.96519 
L 207.668014 121.153519 
L 211.096309 109.211187 
L 212.810457 103.829745 
L 214.524604 98.939283 
L 216.238752 94.607627 
L 217.952899 90.896284 
L 219.667046 87.858989 
L 221.381194 85.540411 
L 223.095341 83.975061 
L 224.809489 83.186437 
L 226.523636 83.186437 
L 228.237784 83.975061 
L 229.951931 85.540411 
L 231.666079 87.858989 
L 233.380226 90.896284 
L 235.094373 94.607627 
L 236.808521 98.939283 
L 238.522668 103.829745 
L 240.236816 109.211187 
L 243.665111 121.153519 
L 247.093406 134.157625 
L 255.664143 167.445704 
L 259.092438 179.766537 
L 262.520732 190.982213 
L 265.949027 200.892783 
L 267.663175 205.326402 
L 269.377322 209.407458 
L 271.09147 213.139092 
L 272.805617 216.529017 
L 274.519765 219.588814 
L 276.233912 222.33322 
L 277.948059 224.779437 
L 279.662207 226.946474 
L 281.376354 228.854539 
L 283.090502 230.524488 
L 284.804649 231.977341 
L 286.518797 233.233869 
L 288.232944 234.314246 
L 289.947092 235.237776 
L 293.375386 236.685949 
L 296.803681 237.708844 
L 300.231976 238.415197 
L 303.660271 238.892168 
L 308.802713 239.320296 
L 315.659303 239.583978 
L 325.944188 239.704984 
L 358.512989 239.732601 
L 396.224233 239.732642 
L 396.224233 239.732642 
" clip-path="url(#pd5133f5e3c)" style="fill: none; stroke: #ff7f0e; stroke-width: 1.5; stroke-linecap: square"/>
   </g>
   <g id="line2d_31">
    <path d="M 55.108892 239.694989 
L 73.964514 239.517972 
L 84.249399 239.223506 
L 91.105988 238.857147 
L 97.962578 238.267177 
L 103.10502 237.613841 
L 108.247463 236.715298 
L 111.675758 235.945378 
L 115.104053 235.010904 
L 118.532347 233.885364 
L 121.960642 232.540121 
L 125.388937 230.944763 
L 128.817232 229.067601 
L 132.245527 226.876326 
L 135.673822 224.338834 
L 139.102117 221.424212 
L 142.530412 218.103878 
L 145.958706 214.352864 
L 149.387001 210.151192 
L 152.815296 205.485318 
L 156.243591 200.349591 
L 159.671886 194.747654 
L 163.100181 188.693733 
L 166.528476 182.213726 
L 169.956771 175.346036 
L 175.099213 164.433606 
L 181.955803 149.115098 
L 192.240687 125.992678 
L 195.668982 118.682747 
L 199.097277 111.767619 
L 202.525572 105.365316 
L 205.953867 99.589581 
L 209.382162 94.546536 
L 211.096309 92.330053 
L 212.810457 90.331455 
L 214.524604 88.560465 
L 216.238752 87.025775 
L 217.952899 85.734971 
L 219.667046 84.694476 
L 221.381194 83.909494 
L 223.095341 83.383966 
L 224.809489 83.120538 
L 226.523636 83.120538 
L 228.237784 83.383966 
L 229.951931 83.909494 
L 231.666079 84.694476 
L 233.380226 85.734971 
L 235.094373 87.025775 
L 236.808521 88.560465 
L 238.522668 90.331455 
L 240.236816 92.330053 
L 241.950963 94.546536 
L 243.665111 96.970227 
L 247.093406 102.392278 
L 250.5217 108.495116 
L 253.949995 115.168395 
L 257.37829 122.295814 
L 262.520732 133.578415 
L 277.948059 168.142058 
L 283.090502 178.825437 
L 286.518797 185.504891 
L 289.947092 191.775858 
L 293.375386 197.606272 
L 296.803681 202.976192 
L 300.231976 207.876835 
L 303.660271 212.309375 
L 307.088566 216.283589 
L 310.516861 219.81642 
L 313.945156 222.93052 
L 317.373451 225.65283 
L 320.801746 228.01325 
L 324.23004 230.043421 
L 327.658335 231.775664 
L 331.08663 233.242069 
L 334.514925 234.47376 
L 337.94322 235.500314 
L 341.371515 236.34934 
L 346.513957 237.344833 
L 351.656399 238.072756 
L 356.798842 238.596123 
L 363.655432 239.062748 
L 372.226169 239.399528 
L 384.225201 239.615932 
L 396.224233 239.694989 
L 396.224233 239.694989 
" clip-path="url(#pd5133f5e3c)" style="fill: none; stroke: #2ca02c; stroke-width: 1.5; stroke-linecap: square"/>
   </g>
   <g id="patch_3">
    <path d="M 38.053125 250.805625 
L 38.053125 7.2 
" style="fill: none; stroke: #000000; stroke-width: 0.8; stroke-linejoin: miter; stroke-linecap: square"/>
   </g>
   <g id="patch_4">
    <path d="M 38.053125 250.805625 
L 413.28 250.805625 
" style="fill: none; stroke: #000000; stroke-width: 0.8; stroke-linejoin: miter; stroke-linecap: square"/>
   </g>
  </g>
 </g>
 <defs>
  <clipPath id="pd5133f5e3c">
   <rect x="38.053125" y="7.2" width="375.226875" height="243.605625"/>
  </clipPath>
 </defs>
</svg>
