<?xml version="1.0" encoding="utf-8" standalone="no"?>
<!DOCTYPE svg PUBLIC "-//W3C//DTD SVG 1.1//EN"
  "http://www.w3.org/Graphics/SVG/1.1/DTD/svg11.dtd">
<svg xmlns:xlink="http://www.w3.org/1999/xlink" width="720pt" height="288pt" viewBox="0 0 720 288" xmlns="http://www.w3.org/2000/svg" version="1.1">
 <metadata>
  <rdf:RDF xmlns:dc="http://purl.org/dc/elements/1.1/" xmlns:cc="http://creativecommons.org/ns#" xmlns:rdf="http://www.w3.org/1999/02/22-rdf-syntax-ns#">
   <cc:Work>
    <dc:type rdf:resource="http://purl.org/dc/dcmitype/StillImage"/>
    <dc:date>2024-10-17T12:14:31.563319</dc:date>
    <dc:format>image/svg+xml</dc:format>
    <dc:creator>
     <cc:Agent>
      <dc:title>Matplotlib v3.9.2, https://matplotlib.org/</dc:title>
     </cc:Agent>
    </dc:creator>
   </cc:Work>
  </rdf:RDF>
 </metadata>
 <defs>
  <style type="text/css">*{stroke-linejoin: round; stroke-linecap: butt}</style>
 </defs>
 <g id="figure_1">
  <g id="patch_1">
   <path d="M 0 288 
L 720 288 
L 720 0 
L 0 0 
z
" style="fill: #ffffff"/>
  </g>
  <g id="axes_1">
   <g id="patch_2">
    <path d="M 36.820408 268.182572 
L 356.110084 268.182572 
L 356.110084 3.00024 
L 36.820408 3.00024 
z
" style="fill: #ffffff"/>
   </g>
   <g id="matplotlib.axis_1">
    <g id="xtick_1">
     <g id="line2d_1">
      <path d="M 57.874709 268.182572 
L 57.874709 3.00024 
" clip-path="url(#p9ac6da4997)" style="fill: none; stroke-dasharray: 2.22,0.96; stroke-dashoffset: 0; stroke: #b0b0b0; stroke-opacity: 0.5; stroke-width: 0.6"/>
     </g>
     <g id="line2d_2">
      <defs>
       <path id="m9928ae235f" d="M 0 0 
L 0 -6 
" style="stroke: #000000; stroke-width: 0.8"/>
      </defs>
      <g>
       <use xlink:href="#m9928ae235f" x="57.874709" y="268.182572" style="stroke: #000000; stroke-width: 0.8"/>
      </g>
     </g>
     <g id="text_1">
      <!-- $\mathdefault{-3}$ -->
      <g transform="translate(48.405032 282.060297) scale(0.15 -0.15)">
       <defs>
        <path id="CMSY10-0" d="M 4218 1472 
C 4326 1472 4442 1472 4442 1600 
C 4442 1728 4326 1728 4218 1728 
L 755 1728 
C 646 1728 531 1728 531 1600 
C 531 1472 646 1472 755 1472 
L 4218 1472 
z
" transform="scale(0.015625)"/>
        <path id="CMR17-33" d="M 1414 2157 
C 1984 2157 2234 1662 2234 1090 
C 2234 320 1824 25 1453 25 
C 1114 25 563 194 390 693 
C 422 680 454 680 486 680 
C 640 680 755 782 755 948 
C 755 1133 614 1216 486 1216 
C 378 1216 211 1165 211 926 
C 211 335 787 -128 1466 -128 
C 2176 -128 2720 430 2720 1085 
C 2720 1707 2208 2157 1600 2227 
C 2086 2328 2554 2756 2554 3329 
C 2554 3820 2048 4179 1472 4179 
C 890 4179 378 3829 378 3329 
C 378 3110 544 3072 627 3072 
C 762 3072 877 3155 877 3321 
C 877 3486 762 3569 627 3569 
C 602 3569 570 3569 544 3557 
C 730 3959 1235 4032 1459 4032 
C 1683 4032 2106 3925 2106 3320 
C 2106 3143 2080 2828 1862 2550 
C 1670 2304 1453 2304 1242 2284 
C 1210 2284 1062 2269 1037 2269 
C 992 2263 966 2257 966 2208 
C 966 2163 973 2157 1101 2157 
L 1414 2157 
z
" transform="scale(0.015625)"/>
       </defs>
       <use xlink:href="#CMSY10-0" transform="scale(0.996264)"/>
       <use xlink:href="#CMR17-33" transform="translate(77.487468 0) scale(0.996264)"/>
      </g>
     </g>
    </g>
    <g id="xtick_2">
     <g id="line2d_3">
      <path d="M 104.071555 268.182572 
L 104.071555 3.00024 
" clip-path="url(#p9ac6da4997)" style="fill: none; stroke-dasharray: 2.22,0.96; stroke-dashoffset: 0; stroke: #b0b0b0; stroke-opacity: 0.5; stroke-width: 0.6"/>
     </g>
     <g id="line2d_4">
      <g>
       <use xlink:href="#m9928ae235f" x="104.071555" y="268.182572" style="stroke: #000000; stroke-width: 0.8"/>
      </g>
     </g>
     <g id="text_2">
      <!-- $\mathdefault{-2}$ -->
      <g transform="translate(94.601878 282.060297) scale(0.15 -0.15)">
       <defs>
        <path id="CMR17-32" d="M 2669 989 
L 2554 989 
C 2490 536 2438 459 2413 420 
C 2381 369 1920 369 1830 369 
L 602 369 
C 832 619 1280 1072 1824 1597 
C 2214 1967 2669 2402 2669 3035 
C 2669 3790 2067 4224 1395 4224 
C 691 4224 262 3604 262 3030 
C 262 2780 448 2748 525 2748 
C 589 2748 781 2787 781 3010 
C 781 3207 614 3264 525 3264 
C 486 3264 448 3258 422 3245 
C 544 3790 915 4058 1306 4058 
C 1862 4058 2227 3617 2227 3035 
C 2227 2479 1901 2000 1536 1584 
L 262 146 
L 262 0 
L 2515 0 
L 2669 989 
z
" transform="scale(0.015625)"/>
       </defs>
       <use xlink:href="#CMSY10-0" transform="scale(0.996264)"/>
       <use xlink:href="#CMR17-32" transform="translate(77.487468 0) scale(0.996264)"/>
      </g>
     </g>
    </g>
    <g id="xtick_3">
     <g id="line2d_5">
      <path d="M 150.2684 268.182572 
L 150.2684 3.00024 
" clip-path="url(#p9ac6da4997)" style="fill: none; stroke-dasharray: 2.22,0.96; stroke-dashoffset: 0; stroke: #b0b0b0; stroke-opacity: 0.5; stroke-width: 0.6"/>
     </g>
     <g id="line2d_6">
      <g>
       <use xlink:href="#m9928ae235f" x="150.2684" y="268.182572" style="stroke: #000000; stroke-width: 0.8"/>
      </g>
     </g>
     <g id="text_3">
      <!-- $\mathdefault{-1}$ -->
      <g transform="translate(140.798723 282.060297) scale(0.15 -0.15)">
       <defs>
        <path id="CMR17-31" d="M 1702 4058 
C 1702 4192 1696 4192 1606 4192 
C 1357 3916 979 3827 621 3827 
C 602 3827 570 3827 563 3808 
C 557 3795 557 3782 557 3648 
C 755 3648 1088 3686 1344 3839 
L 1344 461 
C 1344 236 1331 160 781 160 
L 589 160 
L 589 0 
C 896 0 1216 0 1523 0 
C 1830 0 2150 0 2458 0 
L 2458 160 
L 2266 160 
C 1715 160 1702 230 1702 458 
L 1702 4058 
z
" transform="scale(0.015625)"/>
       </defs>
       <use xlink:href="#CMSY10-0" transform="scale(0.996264)"/>
       <use xlink:href="#CMR17-31" transform="translate(77.487468 0) scale(0.996264)"/>
      </g>
     </g>
    </g>
    <g id="xtick_4">
     <g id="line2d_7">
      <path d="M 196.465246 268.182572 
L 196.465246 3.00024 
" clip-path="url(#p9ac6da4997)" style="fill: none; stroke-dasharray: 2.22,0.96; stroke-dashoffset: 0; stroke: #b0b0b0; stroke-opacity: 0.5; stroke-width: 0.6"/>
     </g>
     <g id="line2d_8">
      <g>
       <use xlink:href="#m9928ae235f" x="196.465246" y="268.182572" style="stroke: #000000; stroke-width: 0.8"/>
      </g>
     </g>
     <g id="text_4">
      <!-- $\mathdefault{0}$ -->
      <g transform="translate(192.807127 282.060297) scale(0.15 -0.15)">
       <defs>
        <path id="CMR17-30" d="M 2688 2025 
C 2688 2416 2682 3080 2413 3591 
C 2176 4039 1798 4198 1466 4198 
C 1158 4198 768 4058 525 3597 
C 269 3118 243 2524 243 2025 
C 243 1661 250 1106 448 619 
C 723 -39 1216 -128 1466 -128 
C 1760 -128 2208 -7 2470 600 
C 2662 1042 2688 1559 2688 2025 
z
M 1466 -26 
C 1056 -26 813 325 723 812 
C 653 1188 653 1738 653 2096 
C 653 2588 653 2997 736 3387 
C 858 3929 1216 4096 1466 4096 
C 1728 4096 2067 3923 2189 3400 
C 2272 3036 2278 2607 2278 2096 
C 2278 1680 2278 1169 2202 792 
C 2067 95 1690 -26 1466 -26 
z
" transform="scale(0.015625)"/>
       </defs>
       <use xlink:href="#CMR17-30" transform="scale(0.996264)"/>
      </g>
     </g>
    </g>
    <g id="xtick_5">
     <g id="line2d_9">
      <path d="M 242.662091 268.182572 
L 242.662091 3.00024 
" clip-path="url(#p9ac6da4997)" style="fill: none; stroke-dasharray: 2.22,0.96; stroke-dashoffset: 0; stroke: #b0b0b0; stroke-opacity: 0.5; stroke-width: 0.6"/>
     </g>
     <g id="line2d_10">
      <g>
       <use xlink:href="#m9928ae235f" x="242.662091" y="268.182572" style="stroke: #000000; stroke-width: 0.8"/>
      </g>
     </g>
     <g id="text_5">
      <!-- $\mathdefault{1}$ -->
      <g transform="translate(239.003973 282.060297) scale(0.15 -0.15)">
       <use xlink:href="#CMR17-31" transform="scale(0.996264)"/>
      </g>
     </g>
    </g>
    <g id="xtick_6">
     <g id="line2d_11">
      <path d="M 288.858937 268.182572 
L 288.858937 3.00024 
" clip-path="url(#p9ac6da4997)" style="fill: none; stroke-dasharray: 2.22,0.96; stroke-dashoffset: 0; stroke: #b0b0b0; stroke-opacity: 0.5; stroke-width: 0.6"/>
     </g>
     <g id="line2d_12">
      <g>
       <use xlink:href="#m9928ae235f" x="288.858937" y="268.182572" style="stroke: #000000; stroke-width: 0.8"/>
      </g>
     </g>
     <g id="text_6">
      <!-- $\mathdefault{2}$ -->
      <g transform="translate(285.200818 282.060297) scale(0.15 -0.15)">
       <use xlink:href="#CMR17-32" transform="scale(0.996264)"/>
      </g>
     </g>
    </g>
    <g id="xtick_7">
     <g id="line2d_13">
      <path d="M 335.055783 268.182572 
L 335.055783 3.00024 
" clip-path="url(#p9ac6da4997)" style="fill: none; stroke-dasharray: 2.22,0.96; stroke-dashoffset: 0; stroke: #b0b0b0; stroke-opacity: 0.5; stroke-width: 0.6"/>
     </g>
     <g id="line2d_14">
      <g>
       <use xlink:href="#m9928ae235f" x="335.055783" y="268.182572" style="stroke: #000000; stroke-width: 0.8"/>
      </g>
     </g>
     <g id="text_7">
      <!-- $\mathdefault{3}$ -->
      <g transform="translate(331.397664 282.060297) scale(0.15 -0.15)">
       <use xlink:href="#CMR17-33" transform="scale(0.996264)"/>
      </g>
     </g>
    </g>
    <g id="xtick_8">
     <g id="line2d_15">
      <defs>
       <path id="m7d466fb98f" d="M 0 0 
L 0 -4 
" style="stroke: #000000; stroke-width: 0.6"/>
      </defs>
      <g>
       <use xlink:href="#m7d466fb98f" x="39.395971" y="268.182572" style="stroke: #000000; stroke-width: 0.6"/>
      </g>
     </g>
    </g>
    <g id="xtick_9">
     <g id="line2d_16">
      <g>
       <use xlink:href="#m7d466fb98f" x="48.63534" y="268.182572" style="stroke: #000000; stroke-width: 0.6"/>
      </g>
     </g>
    </g>
    <g id="xtick_10">
     <g id="line2d_17">
      <g>
       <use xlink:href="#m7d466fb98f" x="67.114078" y="268.182572" style="stroke: #000000; stroke-width: 0.6"/>
      </g>
     </g>
    </g>
    <g id="xtick_11">
     <g id="line2d_18">
      <g>
       <use xlink:href="#m7d466fb98f" x="76.353447" y="268.182572" style="stroke: #000000; stroke-width: 0.6"/>
      </g>
     </g>
    </g>
    <g id="xtick_12">
     <g id="line2d_19">
      <g>
       <use xlink:href="#m7d466fb98f" x="85.592816" y="268.182572" style="stroke: #000000; stroke-width: 0.6"/>
      </g>
     </g>
    </g>
    <g id="xtick_13">
     <g id="line2d_20">
      <g>
       <use xlink:href="#m7d466fb98f" x="94.832185" y="268.182572" style="stroke: #000000; stroke-width: 0.6"/>
      </g>
     </g>
    </g>
    <g id="xtick_14">
     <g id="line2d_21">
      <g>
       <use xlink:href="#m7d466fb98f" x="113.310924" y="268.182572" style="stroke: #000000; stroke-width: 0.6"/>
      </g>
     </g>
    </g>
    <g id="xtick_15">
     <g id="line2d_22">
      <g>
       <use xlink:href="#m7d466fb98f" x="122.550293" y="268.182572" style="stroke: #000000; stroke-width: 0.6"/>
      </g>
     </g>
    </g>
    <g id="xtick_16">
     <g id="line2d_23">
      <g>
       <use xlink:href="#m7d466fb98f" x="131.789662" y="268.182572" style="stroke: #000000; stroke-width: 0.6"/>
      </g>
     </g>
    </g>
    <g id="xtick_17">
     <g id="line2d_24">
      <g>
       <use xlink:href="#m7d466fb98f" x="141.029031" y="268.182572" style="stroke: #000000; stroke-width: 0.6"/>
      </g>
     </g>
    </g>
    <g id="xtick_18">
     <g id="line2d_25">
      <g>
       <use xlink:href="#m7d466fb98f" x="159.507769" y="268.182572" style="stroke: #000000; stroke-width: 0.6"/>
      </g>
     </g>
    </g>
    <g id="xtick_19">
     <g id="line2d_26">
      <g>
       <use xlink:href="#m7d466fb98f" x="168.747138" y="268.182572" style="stroke: #000000; stroke-width: 0.6"/>
      </g>
     </g>
    </g>
    <g id="xtick_20">
     <g id="line2d_27">
      <g>
       <use xlink:href="#m7d466fb98f" x="177.986508" y="268.182572" style="stroke: #000000; stroke-width: 0.6"/>
      </g>
     </g>
    </g>
    <g id="xtick_21">
     <g id="line2d_28">
      <g>
       <use xlink:href="#m7d466fb98f" x="187.225877" y="268.182572" style="stroke: #000000; stroke-width: 0.6"/>
      </g>
     </g>
    </g>
    <g id="xtick_22">
     <g id="line2d_29">
      <g>
       <use xlink:href="#m7d466fb98f" x="205.704615" y="268.182572" style="stroke: #000000; stroke-width: 0.6"/>
      </g>
     </g>
    </g>
    <g id="xtick_23">
     <g id="line2d_30">
      <g>
       <use xlink:href="#m7d466fb98f" x="214.943984" y="268.182572" style="stroke: #000000; stroke-width: 0.6"/>
      </g>
     </g>
    </g>
    <g id="xtick_24">
     <g id="line2d_31">
      <g>
       <use xlink:href="#m7d466fb98f" x="224.183353" y="268.182572" style="stroke: #000000; stroke-width: 0.6"/>
      </g>
     </g>
    </g>
    <g id="xtick_25">
     <g id="line2d_32">
      <g>
       <use xlink:href="#m7d466fb98f" x="233.422722" y="268.182572" style="stroke: #000000; stroke-width: 0.6"/>
      </g>
     </g>
    </g>
    <g id="xtick_26">
     <g id="line2d_33">
      <g>
       <use xlink:href="#m7d466fb98f" x="251.901461" y="268.182572" style="stroke: #000000; stroke-width: 0.6"/>
      </g>
     </g>
    </g>
    <g id="xtick_27">
     <g id="line2d_34">
      <g>
       <use xlink:href="#m7d466fb98f" x="261.14083" y="268.182572" style="stroke: #000000; stroke-width: 0.6"/>
      </g>
     </g>
    </g>
    <g id="xtick_28">
     <g id="line2d_35">
      <g>
       <use xlink:href="#m7d466fb98f" x="270.380199" y="268.182572" style="stroke: #000000; stroke-width: 0.6"/>
      </g>
     </g>
    </g>
    <g id="xtick_29">
     <g id="line2d_36">
      <g>
       <use xlink:href="#m7d466fb98f" x="279.619568" y="268.182572" style="stroke: #000000; stroke-width: 0.6"/>
      </g>
     </g>
    </g>
    <g id="xtick_30">
     <g id="line2d_37">
      <g>
       <use xlink:href="#m7d466fb98f" x="298.098306" y="268.182572" style="stroke: #000000; stroke-width: 0.6"/>
      </g>
     </g>
    </g>
    <g id="xtick_31">
     <g id="line2d_38">
      <g>
       <use xlink:href="#m7d466fb98f" x="307.337675" y="268.182572" style="stroke: #000000; stroke-width: 0.6"/>
      </g>
     </g>
    </g>
    <g id="xtick_32">
     <g id="line2d_39">
      <g>
       <use xlink:href="#m7d466fb98f" x="316.577045" y="268.182572" style="stroke: #000000; stroke-width: 0.6"/>
      </g>
     </g>
    </g>
    <g id="xtick_33">
     <g id="line2d_40">
      <g>
       <use xlink:href="#m7d466fb98f" x="325.816414" y="268.182572" style="stroke: #000000; stroke-width: 0.6"/>
      </g>
     </g>
    </g>
    <g id="xtick_34">
     <g id="line2d_41">
      <g>
       <use xlink:href="#m7d466fb98f" x="344.295152" y="268.182572" style="stroke: #000000; stroke-width: 0.6"/>
      </g>
     </g>
    </g>
    <g id="xtick_35">
     <g id="line2d_42">
      <g>
       <use xlink:href="#m7d466fb98f" x="353.534521" y="268.182572" style="stroke: #000000; stroke-width: 0.6"/>
      </g>
     </g>
    </g>
   </g>
   <g id="matplotlib.axis_2">
    <g id="ytick_1">
     <g id="line2d_43">
      <path d="M 36.820408 256.144004 
L 356.110084 256.144004 
" clip-path="url(#p9ac6da4997)" style="fill: none; stroke-dasharray: 2.22,0.96; stroke-dashoffset: 0; stroke: #b0b0b0; stroke-opacity: 0.5; stroke-width: 0.6"/>
     </g>
     <g id="line2d_44">
      <defs>
       <path id="m5c33295812" d="M 0 0 
L 6 0 
" style="stroke: #000000; stroke-width: 0.8"/>
      </defs>
      <g>
       <use xlink:href="#m5c33295812" x="36.820408" y="256.144004" style="stroke: #000000; stroke-width: 0.8"/>
      </g>
     </g>
     <g id="text_8">
      <!-- $\mathdefault{-1.0}$ -->
      <g transform="translate(3.00024 261.332867) scale(0.15 -0.15)">
       <defs>
        <path id="CMMI12-3a" d="M 1178 307 
C 1178 492 1024 619 870 619 
C 685 619 557 466 557 313 
C 557 128 710 0 864 0 
C 1050 0 1178 153 1178 307 
z
" transform="scale(0.015625)"/>
       </defs>
       <use xlink:href="#CMSY10-0" transform="scale(0.996264)"/>
       <use xlink:href="#CMR17-31" transform="translate(77.487468 0) scale(0.996264)"/>
       <use xlink:href="#CMMI12-3a" transform="translate(123.177945 0) scale(0.996264)"/>
       <use xlink:href="#CMR17-30" transform="translate(150.275122 0) scale(0.996264)"/>
      </g>
     </g>
    </g>
    <g id="ytick_2">
     <g id="line2d_45">
      <path d="M 36.820408 195.867705 
L 356.110084 195.867705 
" clip-path="url(#p9ac6da4997)" style="fill: none; stroke-dasharray: 2.22,0.96; stroke-dashoffset: 0; stroke: #b0b0b0; stroke-opacity: 0.5; stroke-width: 0.6"/>
     </g>
     <g id="line2d_46">
      <g>
       <use xlink:href="#m5c33295812" x="36.820408" y="195.867705" style="stroke: #000000; stroke-width: 0.8"/>
      </g>
     </g>
     <g id="text_9">
      <!-- $\mathdefault{-0.5}$ -->
      <g transform="translate(3.00024 201.056568) scale(0.15 -0.15)">
       <defs>
        <path id="CMR17-35" d="M 730 3692 
C 794 3666 1056 3584 1325 3584 
C 1920 3584 2246 3911 2432 4100 
C 2432 4157 2432 4192 2394 4192 
C 2387 4192 2374 4192 2323 4163 
C 2099 4058 1837 3973 1517 3973 
C 1325 3973 1037 3999 723 4139 
C 653 4171 640 4171 634 4171 
C 602 4171 595 4164 595 4037 
L 595 2203 
C 595 2089 595 2057 659 2057 
C 691 2057 704 2070 736 2114 
C 941 2401 1222 2522 1542 2522 
C 1766 2522 2246 2382 2246 1289 
C 2246 1085 2246 715 2054 421 
C 1894 159 1645 25 1370 25 
C 947 25 518 320 403 814 
C 429 807 480 795 506 795 
C 589 795 749 840 749 1038 
C 749 1210 627 1280 506 1280 
C 358 1280 262 1190 262 1011 
C 262 454 704 -128 1382 -128 
C 2042 -128 2669 440 2669 1264 
C 2669 2030 2170 2624 1549 2624 
C 1222 2624 947 2503 730 2274 
L 730 3692 
z
" transform="scale(0.015625)"/>
       </defs>
       <use xlink:href="#CMSY10-0" transform="scale(0.996264)"/>
       <use xlink:href="#CMR17-30" transform="translate(77.487468 0) scale(0.996264)"/>
       <use xlink:href="#CMMI12-3a" transform="translate(123.177945 0) scale(0.996264)"/>
       <use xlink:href="#CMR17-35" transform="translate(150.275122 0) scale(0.996264)"/>
      </g>
     </g>
    </g>
    <g id="ytick_3">
     <g id="line2d_47">
      <path d="M 36.820408 135.591406 
L 356.110084 135.591406 
" clip-path="url(#p9ac6da4997)" style="fill: none; stroke-dasharray: 2.22,0.96; stroke-dashoffset: 0; stroke: #b0b0b0; stroke-opacity: 0.5; stroke-width: 0.6"/>
     </g>
     <g id="line2d_48">
      <g>
       <use xlink:href="#m5c33295812" x="36.820408" y="135.591406" style="stroke: #000000; stroke-width: 0.8"/>
      </g>
     </g>
     <g id="text_10">
      <!-- $\mathdefault{0.0}$ -->
      <g transform="translate(14.623356 140.780269) scale(0.15 -0.15)">
       <use xlink:href="#CMR17-30" transform="scale(0.996264)"/>
       <use xlink:href="#CMMI12-3a" transform="translate(45.690477 0) scale(0.996264)"/>
       <use xlink:href="#CMR17-30" transform="translate(72.787654 0) scale(0.996264)"/>
      </g>
     </g>
    </g>
    <g id="ytick_4">
     <g id="line2d_49">
      <path d="M 36.820408 75.315107 
L 356.110084 75.315107 
" clip-path="url(#p9ac6da4997)" style="fill: none; stroke-dasharray: 2.22,0.96; stroke-dashoffset: 0; stroke: #b0b0b0; stroke-opacity: 0.5; stroke-width: 0.6"/>
     </g>
     <g id="line2d_50">
      <g>
       <use xlink:href="#m5c33295812" x="36.820408" y="75.315107" style="stroke: #000000; stroke-width: 0.8"/>
      </g>
     </g>
     <g id="text_11">
      <!-- $\mathdefault{0.5}$ -->
      <g transform="translate(14.623356 80.50397) scale(0.15 -0.15)">
       <use xlink:href="#CMR17-30" transform="scale(0.996264)"/>
       <use xlink:href="#CMMI12-3a" transform="translate(45.690477 0) scale(0.996264)"/>
       <use xlink:href="#CMR17-35" transform="translate(72.787654 0) scale(0.996264)"/>
      </g>
     </g>
    </g>
    <g id="ytick_5">
     <g id="line2d_51">
      <path d="M 36.820408 15.038808 
L 356.110084 15.038808 
" clip-path="url(#p9ac6da4997)" style="fill: none; stroke-dasharray: 2.22,0.96; stroke-dashoffset: 0; stroke: #b0b0b0; stroke-opacity: 0.5; stroke-width: 0.6"/>
     </g>
     <g id="line2d_52">
      <g>
       <use xlink:href="#m5c33295812" x="36.820408" y="15.038808" style="stroke: #000000; stroke-width: 0.8"/>
      </g>
     </g>
     <g id="text_12">
      <!-- $\mathdefault{1.0}$ -->
      <g transform="translate(14.623356 20.227671) scale(0.15 -0.15)">
       <use xlink:href="#CMR17-31" transform="scale(0.996264)"/>
       <use xlink:href="#CMMI12-3a" transform="translate(45.690477 0) scale(0.996264)"/>
       <use xlink:href="#CMR17-30" transform="translate(72.787654 0) scale(0.996264)"/>
      </g>
     </g>
    </g>
    <g id="ytick_6">
     <g id="line2d_53">
      <defs>
       <path id="m495eee433e" d="M 0 0 
L 4 0 
" style="stroke: #000000; stroke-width: 0.6"/>
      </defs>
      <g>
       <use xlink:href="#m495eee433e" x="36.820408" y="244.088745" style="stroke: #000000; stroke-width: 0.6"/>
      </g>
     </g>
    </g>
    <g id="ytick_7">
     <g id="line2d_54">
      <g>
       <use xlink:href="#m495eee433e" x="36.820408" y="232.033485" style="stroke: #000000; stroke-width: 0.6"/>
      </g>
     </g>
    </g>
    <g id="ytick_8">
     <g id="line2d_55">
      <g>
       <use xlink:href="#m495eee433e" x="36.820408" y="219.978225" style="stroke: #000000; stroke-width: 0.6"/>
      </g>
     </g>
    </g>
    <g id="ytick_9">
     <g id="line2d_56">
      <g>
       <use xlink:href="#m495eee433e" x="36.820408" y="207.922965" style="stroke: #000000; stroke-width: 0.6"/>
      </g>
     </g>
    </g>
    <g id="ytick_10">
     <g id="line2d_57">
      <g>
       <use xlink:href="#m495eee433e" x="36.820408" y="183.812445" style="stroke: #000000; stroke-width: 0.6"/>
      </g>
     </g>
    </g>
    <g id="ytick_11">
     <g id="line2d_58">
      <g>
       <use xlink:href="#m495eee433e" x="36.820408" y="171.757186" style="stroke: #000000; stroke-width: 0.6"/>
      </g>
     </g>
    </g>
    <g id="ytick_12">
     <g id="line2d_59">
      <g>
       <use xlink:href="#m495eee433e" x="36.820408" y="159.701926" style="stroke: #000000; stroke-width: 0.6"/>
      </g>
     </g>
    </g>
    <g id="ytick_13">
     <g id="line2d_60">
      <g>
       <use xlink:href="#m495eee433e" x="36.820408" y="147.646666" style="stroke: #000000; stroke-width: 0.6"/>
      </g>
     </g>
    </g>
    <g id="ytick_14">
     <g id="line2d_61">
      <g>
       <use xlink:href="#m495eee433e" x="36.820408" y="123.536146" style="stroke: #000000; stroke-width: 0.6"/>
      </g>
     </g>
    </g>
    <g id="ytick_15">
     <g id="line2d_62">
      <g>
       <use xlink:href="#m495eee433e" x="36.820408" y="111.480887" style="stroke: #000000; stroke-width: 0.6"/>
      </g>
     </g>
    </g>
    <g id="ytick_16">
     <g id="line2d_63">
      <g>
       <use xlink:href="#m495eee433e" x="36.820408" y="99.425627" style="stroke: #000000; stroke-width: 0.6"/>
      </g>
     </g>
    </g>
    <g id="ytick_17">
     <g id="line2d_64">
      <g>
       <use xlink:href="#m495eee433e" x="36.820408" y="87.370367" style="stroke: #000000; stroke-width: 0.6"/>
      </g>
     </g>
    </g>
    <g id="ytick_18">
     <g id="line2d_65">
      <g>
       <use xlink:href="#m495eee433e" x="36.820408" y="63.259847" style="stroke: #000000; stroke-width: 0.6"/>
      </g>
     </g>
    </g>
    <g id="ytick_19">
     <g id="line2d_66">
      <g>
       <use xlink:href="#m495eee433e" x="36.820408" y="51.204588" style="stroke: #000000; stroke-width: 0.6"/>
      </g>
     </g>
    </g>
    <g id="ytick_20">
     <g id="line2d_67">
      <g>
       <use xlink:href="#m495eee433e" x="36.820408" y="39.149328" style="stroke: #000000; stroke-width: 0.6"/>
      </g>
     </g>
    </g>
    <g id="ytick_21">
     <g id="line2d_68">
      <g>
       <use xlink:href="#m495eee433e" x="36.820408" y="27.094068" style="stroke: #000000; stroke-width: 0.6"/>
      </g>
     </g>
    </g>
   </g>
   <g id="line2d_69">
    <path d="M 51.333575 135.591406 
L 54.265528 143.237325 
L 57.197481 150.852455 
L 60.129434 158.406135 
L 63.061387 165.867949 
L 65.99334 173.207849 
L 68.925293 180.396281 
L 71.857246 187.4043 
L 74.789198 194.203686 
L 77.721151 200.767061 
L 80.653104 207.067998 
L 83.585057 213.081123 
L 86.51701 218.782224 
L 89.448963 224.148345 
L 92.380916 229.157879 
L 95.312869 233.790654 
L 98.244822 238.028015 
L 101.176775 241.852899 
L 104.108728 245.249907 
L 107.040681 248.205358 
L 109.972634 250.707352 
L 112.904587 252.745816 
L 115.83654 254.31254 
L 118.768493 255.401215 
L 121.700446 256.007459 
L 124.632399 256.12883 
L 127.564352 255.764839 
L 130.496304 254.916953 
L 133.428257 253.588584 
L 136.36021 251.785083 
L 139.292163 249.51371 
L 142.224116 246.783613 
L 145.156069 243.605784 
L 148.088022 239.993019 
L 151.019975 235.959865 
L 153.951928 231.522564 
L 156.883881 226.698981 
L 159.815834 221.50854 
L 162.747787 215.972142 
L 165.67974 210.112078 
L 168.611693 203.951946 
L 171.543646 197.51655 
L 174.475599 190.831804 
L 177.407552 183.924624 
L 180.339505 176.822823 
L 183.271458 169.554998 
L 186.203411 162.150413 
L 189.135363 154.638885 
L 192.067316 147.050659 
L 194.999269 139.416291 
L 197.931222 131.766521 
L 200.863175 124.132153 
L 203.795128 116.543927 
L 206.727081 109.032399 
L 209.659034 101.627815 
L 212.590987 94.359989 
L 215.52294 87.258189 
L 218.454893 80.351009 
L 221.386846 73.666262 
L 224.318799 67.230866 
L 227.250752 61.070734 
L 230.182705 55.210671 
L 233.114658 49.674272 
L 236.046611 44.483832 
L 238.978564 39.660249 
L 241.910517 35.222947 
L 244.842469 31.189794 
L 247.774422 27.577029 
L 250.706375 24.3992 
L 253.638328 21.669102 
L 256.570281 19.39773 
L 259.502234 17.594228 
L 262.434187 16.26586 
L 265.36614 15.417973 
L 268.298093 15.053982 
L 271.230046 15.175353 
L 274.161999 15.781597 
L 277.093952 16.870273 
L 280.025905 18.436997 
L 282.957858 20.47546 
L 285.889811 22.977455 
L 288.821764 25.932906 
L 291.753717 29.329913 
L 294.68567 33.154798 
L 297.617623 37.392159 
L 300.549576 42.024933 
L 303.481528 47.034467 
L 306.413481 52.400589 
L 309.345434 58.10169 
L 312.277387 64.114815 
L 315.20934 70.415751 
L 318.141293 76.979127 
L 321.073246 83.778513 
L 324.005199 90.786532 
L 326.937152 97.974964 
L 329.869105 105.314864 
L 332.801058 112.776677 
L 335.733011 120.330357 
L 338.664964 127.945488 
L 341.596917 135.591406 
" clip-path="url(#p9ac6da4997)" style="fill: none; stroke: #d62728; stroke-width: 1.5; stroke-linecap: square"/>
   </g>
   <g id="patch_3">
    <path d="M 36.820408 268.182572 
L 36.820408 3.00024 
" style="fill: none; stroke: #000000; stroke-width: 0.8; stroke-linejoin: miter; stroke-linecap: square"/>
   </g>
   <g id="patch_4">
    <path d="M 356.110084 268.182572 
L 356.110084 3.00024 
" style="fill: none; stroke: #000000; stroke-width: 0.8; stroke-linejoin: miter; stroke-linecap: square"/>
   </g>
   <g id="patch_5">
    <path d="M 36.820408 268.182572 
L 356.110084 268.182572 
" style="fill: none; stroke: #000000; stroke-width: 0.8; stroke-linejoin: miter; stroke-linecap: square"/>
   </g>
   <g id="patch_6">
    <path d="M 36.820408 3.00024 
L 356.110084 3.00024 
" style="fill: none; stroke: #000000; stroke-width: 0.8; stroke-linejoin: miter; stroke-linecap: square"/>
   </g>
  </g>
  <g id="axes_2">
   <g id="patch_7">
    <path d="M 397.710084 268.182572 
L 716.99976 268.182572 
L 716.99976 3.00024 
L 397.710084 3.00024 
z
" style="fill: #ffffff"/>
   </g>
   <g id="matplotlib.axis_3">
    <g id="xtick_36">
     <g id="line2d_70">
      <g>
       <use xlink:href="#m9928ae235f" x="418.764385" y="268.182572" style="stroke: #000000; stroke-width: 0.8"/>
      </g>
     </g>
     <g id="text_13">
      <!-- $\mathdefault{-3}$ -->
      <g transform="translate(409.164385 282.091166) scale(0.15 -0.15)">
       <defs>
        <path id="Cmsy10-a1" d="M 653 1472 
Q 600 1472 565 1512 
Q 531 1553 531 1600 
Q 531 1647 565 1687 
Q 600 1728 653 1728 
L 4325 1728 
Q 4375 1728 4408 1687 
Q 4441 1647 4441 1600 
Q 4441 1553 4408 1512 
Q 4375 1472 4325 1472 
L 653 1472 
z
" transform="scale(0.015625)"/>
        <path id="Cmr10-33" d="M 609 494 
Q 759 275 1012 169 
Q 1266 63 1556 63 
Q 1928 63 2084 380 
Q 2241 697 2241 1100 
Q 2241 1281 2208 1462 
Q 2175 1644 2097 1800 
Q 2019 1956 1883 2050 
Q 1747 2144 1550 2144 
L 1125 2144 
Q 1069 2144 1069 2203 
L 1069 2259 
Q 1069 2309 1125 2309 
L 1478 2338 
Q 1703 2338 1851 2506 
Q 2000 2675 2069 2917 
Q 2138 3159 2138 3378 
Q 2138 3684 1994 3881 
Q 1850 4078 1556 4078 
Q 1313 4078 1091 3986 
Q 869 3894 738 3706 
Q 750 3709 759 3711 
Q 769 3713 781 3713 
Q 925 3713 1022 3613 
Q 1119 3513 1119 3372 
Q 1119 3234 1022 3134 
Q 925 3034 781 3034 
Q 641 3034 541 3134 
Q 441 3234 441 3372 
Q 441 3647 606 3850 
Q 772 4053 1033 4158 
Q 1294 4263 1556 4263 
Q 1750 4263 1965 4205 
Q 2181 4147 2356 4039 
Q 2531 3931 2642 3762 
Q 2753 3594 2753 3378 
Q 2753 3109 2633 2881 
Q 2513 2653 2303 2487 
Q 2094 2322 1844 2241 
Q 2122 2188 2372 2031 
Q 2622 1875 2773 1631 
Q 2925 1388 2925 1106 
Q 2925 753 2731 467 
Q 2538 181 2222 20 
Q 1906 -141 1556 -141 
Q 1256 -141 954 -26 
Q 653 88 461 316 
Q 269 544 269 863 
Q 269 1022 375 1128 
Q 481 1234 641 1234 
Q 744 1234 830 1186 
Q 916 1138 964 1050 
Q 1013 963 1013 863 
Q 1013 706 903 600 
Q 794 494 641 494 
L 609 494 
z
" transform="scale(0.015625)"/>
       </defs>
       <use xlink:href="#Cmsy10-a1" transform="translate(0 0.390625)"/>
       <use xlink:href="#Cmr10-33" transform="translate(77.685547 0.390625)"/>
      </g>
     </g>
    </g>
    <g id="xtick_37">
     <g id="line2d_71">
      <g>
       <use xlink:href="#m9928ae235f" x="464.961231" y="268.182572" style="stroke: #000000; stroke-width: 0.8"/>
      </g>
     </g>
     <g id="text_14">
      <!-- $\mathdefault{-2}$ -->
      <g transform="translate(455.361231 282.091166) scale(0.15 -0.15)">
       <defs>
        <path id="Cmr10-32" d="M 319 0 
L 319 172 
Q 319 188 331 206 
L 1325 1306 
Q 1550 1550 1690 1715 
Q 1831 1881 1968 2097 
Q 2106 2313 2186 2536 
Q 2266 2759 2266 3009 
Q 2266 3272 2169 3511 
Q 2072 3750 1880 3894 
Q 1688 4038 1416 4038 
Q 1138 4038 916 3870 
Q 694 3703 603 3438 
Q 628 3444 672 3444 
Q 816 3444 917 3347 
Q 1019 3250 1019 3097 
Q 1019 2950 917 2848 
Q 816 2747 672 2747 
Q 522 2747 420 2851 
Q 319 2956 319 3097 
Q 319 3338 409 3548 
Q 500 3759 670 3923 
Q 841 4088 1055 4175 
Q 1269 4263 1509 4263 
Q 1875 4263 2190 4108 
Q 2506 3953 2690 3670 
Q 2875 3388 2875 3009 
Q 2875 2731 2753 2481 
Q 2631 2231 2440 2026 
Q 2250 1822 1953 1562 
Q 1656 1303 1563 1216 
L 838 519 
L 1453 519 
Q 1906 519 2211 526 
Q 2516 534 2534 550 
Q 2609 631 2688 1141 
L 2875 1141 
L 2694 0 
L 319 0 
z
" transform="scale(0.015625)"/>
       </defs>
       <use xlink:href="#Cmsy10-a1" transform="translate(0 0.390625)"/>
       <use xlink:href="#Cmr10-32" transform="translate(77.685547 0.390625)"/>
      </g>
     </g>
    </g>
    <g id="xtick_38">
     <g id="line2d_72">
      <g>
       <use xlink:href="#m9928ae235f" x="511.158076" y="268.182572" style="stroke: #000000; stroke-width: 0.8"/>
      </g>
     </g>
     <g id="text_15">
      <!-- $\mathdefault{-1}$ -->
      <g transform="translate(501.558076 282.091166) scale(0.15 -0.15)">
       <defs>
        <path id="Cmr10-31" d="M 594 0 
L 594 225 
Q 1394 225 1394 428 
L 1394 3788 
Q 1063 3628 556 3628 
L 556 3853 
Q 1341 3853 1741 4263 
L 1831 4263 
Q 1853 4263 1873 4245 
Q 1894 4228 1894 4206 
L 1894 428 
Q 1894 225 2694 225 
L 2694 0 
L 594 0 
z
" transform="scale(0.015625)"/>
       </defs>
       <use xlink:href="#Cmsy10-a1" transform="translate(0 0.390625)"/>
       <use xlink:href="#Cmr10-31" transform="translate(77.685547 0.390625)"/>
      </g>
     </g>
    </g>
    <g id="xtick_39">
     <g id="line2d_73">
      <g>
       <use xlink:href="#m9928ae235f" x="557.354922" y="268.182572" style="stroke: #000000; stroke-width: 0.8"/>
      </g>
     </g>
     <g id="text_16">
      <!-- $\mathdefault{0}$ -->
      <g transform="translate(553.604922 282.091166) scale(0.15 -0.15)">
       <defs>
        <path id="Cmr10-30" d="M 1600 -141 
Q 816 -141 533 504 
Q 250 1150 250 2041 
Q 250 2597 351 3087 
Q 453 3578 754 3920 
Q 1056 4263 1600 4263 
Q 2022 4263 2290 4056 
Q 2559 3850 2700 3523 
Q 2841 3197 2892 2823 
Q 2944 2450 2944 2041 
Q 2944 1491 2842 1011 
Q 2741 531 2444 195 
Q 2147 -141 1600 -141 
z
M 1600 25 
Q 1956 25 2131 390 
Q 2306 756 2347 1200 
Q 2388 1644 2388 2144 
Q 2388 2625 2347 3031 
Q 2306 3438 2132 3767 
Q 1959 4097 1600 4097 
Q 1238 4097 1063 3765 
Q 888 3434 847 3029 
Q 806 2625 806 2144 
Q 806 1788 823 1472 
Q 841 1156 916 820 
Q 991 484 1158 254 
Q 1325 25 1600 25 
z
" transform="scale(0.015625)"/>
       </defs>
       <use xlink:href="#Cmr10-30" transform="translate(0 0.390625)"/>
      </g>
     </g>
    </g>
    <g id="xtick_40">
     <g id="line2d_74">
      <g>
       <use xlink:href="#m9928ae235f" x="603.551768" y="268.182572" style="stroke: #000000; stroke-width: 0.8"/>
      </g>
     </g>
     <g id="text_17">
      <!-- $\mathdefault{1}$ -->
      <g transform="translate(599.801768 282.091166) scale(0.15 -0.15)">
       <use xlink:href="#Cmr10-31" transform="translate(0 0.390625)"/>
      </g>
     </g>
    </g>
    <g id="xtick_41">
     <g id="line2d_75">
      <g>
       <use xlink:href="#m9928ae235f" x="649.748613" y="268.182572" style="stroke: #000000; stroke-width: 0.8"/>
      </g>
     </g>
     <g id="text_18">
      <!-- $\mathdefault{2}$ -->
      <g transform="translate(645.998613 282.091166) scale(0.15 -0.15)">
       <use xlink:href="#Cmr10-32" transform="translate(0 0.390625)"/>
      </g>
     </g>
    </g>
    <g id="xtick_42">
     <g id="line2d_76">
      <g>
       <use xlink:href="#m9928ae235f" x="695.945459" y="268.182572" style="stroke: #000000; stroke-width: 0.8"/>
      </g>
     </g>
     <g id="text_19">
      <!-- $\mathdefault{3}$ -->
      <g transform="translate(692.195459 282.091166) scale(0.15 -0.15)">
       <use xlink:href="#Cmr10-33" transform="translate(0 0.390625)"/>
      </g>
     </g>
    </g>
   </g>
   <g id="matplotlib.axis_4">
    <g id="ytick_22">
     <g id="line2d_77">
      <g>
       <use xlink:href="#m5c33295812" x="397.710084" y="256.12883" style="stroke: #000000; stroke-width: 0.8"/>
      </g>
     </g>
     <g id="text_20">
      <!-- $\mathdefault{-1.0}$ -->
      <g transform="translate(363.310084 261.333127) scale(0.15 -0.15)">
       <defs>
        <path id="Cmr10-2e" d="M 538 353 
Q 538 497 644 600 
Q 750 703 891 703 
Q 978 703 1062 656 
Q 1147 609 1194 525 
Q 1241 441 1241 353 
Q 1241 213 1137 106 
Q 1034 0 891 0 
Q 750 0 644 106 
Q 538 213 538 353 
z
" transform="scale(0.015625)"/>
       </defs>
       <use xlink:href="#Cmsy10-a1" transform="translate(0 0.390625)"/>
       <use xlink:href="#Cmr10-31" transform="translate(77.685547 0.390625)"/>
       <use xlink:href="#Cmr10-2e" transform="translate(127.685547 0.390625)"/>
       <use xlink:href="#Cmr10-30" transform="translate(155.371094 0.390625)"/>
      </g>
     </g>
    </g>
    <g id="ytick_23">
     <g id="line2d_78">
      <g>
       <use xlink:href="#m5c33295812" x="397.710084" y="195.844943" style="stroke: #000000; stroke-width: 0.8"/>
      </g>
     </g>
     <g id="text_21">
      <!-- $\mathdefault{-0.5}$ -->
      <g transform="translate(363.310084 201.04924) scale(0.15 -0.15)">
       <defs>
        <path id="Cmr10-35" d="M 556 728 
Q 622 541 758 387 
Q 894 234 1080 148 
Q 1266 63 1466 63 
Q 1928 63 2103 422 
Q 2278 781 2278 1294 
Q 2278 1516 2270 1667 
Q 2263 1819 2228 1959 
Q 2169 2184 2020 2353 
Q 1872 2522 1656 2522 
Q 1441 2522 1286 2456 
Q 1131 2391 1034 2303 
Q 938 2216 863 2119 
Q 788 2022 769 2016 
L 697 2016 
Q 681 2016 657 2036 
Q 634 2056 634 2075 
L 634 4213 
Q 634 4228 654 4245 
Q 675 4263 697 4263 
L 716 4263 
Q 1147 4056 1631 4056 
Q 2106 4056 2547 4263 
L 2566 4263 
Q 2588 4263 2606 4247 
Q 2625 4231 2625 4213 
L 2625 4153 
Q 2625 4122 2613 4122 
Q 2394 3831 2064 3668 
Q 1734 3506 1381 3506 
Q 1125 3506 856 3578 
L 856 2369 
Q 1069 2541 1236 2614 
Q 1403 2688 1663 2688 
Q 2016 2688 2295 2484 
Q 2575 2281 2725 1954 
Q 2875 1628 2875 1288 
Q 2875 903 2686 575 
Q 2497 247 2172 53 
Q 1847 -141 1466 -141 
Q 1150 -141 886 21 
Q 622 184 470 459 
Q 319 734 319 1044 
Q 319 1188 412 1278 
Q 506 1369 647 1369 
Q 788 1369 883 1276 
Q 978 1184 978 1044 
Q 978 906 883 811 
Q 788 716 647 716 
Q 625 716 597 720 
Q 569 725 556 728 
z
" transform="scale(0.015625)"/>
       </defs>
       <use xlink:href="#Cmsy10-a1" transform="translate(0 0.390625)"/>
       <use xlink:href="#Cmr10-30" transform="translate(77.685547 0.390625)"/>
       <use xlink:href="#Cmr10-2e" transform="translate(127.685547 0.390625)"/>
       <use xlink:href="#Cmr10-35" transform="translate(155.371094 0.390625)"/>
      </g>
     </g>
    </g>
    <g id="ytick_24">
     <g id="line2d_79">
      <g>
       <use xlink:href="#m5c33295812" x="397.710084" y="135.561056" style="stroke: #000000; stroke-width: 0.8"/>
      </g>
     </g>
     <g id="text_22">
      <!-- $\mathdefault{0.0}$ -->
      <g transform="translate(375.010084 140.765353) scale(0.15 -0.15)">
       <use xlink:href="#Cmr10-30" transform="translate(0 0.390625)"/>
       <use xlink:href="#Cmr10-2e" transform="translate(50 0.390625)"/>
       <use xlink:href="#Cmr10-30" transform="translate(77.685547 0.390625)"/>
      </g>
     </g>
    </g>
    <g id="ytick_25">
     <g id="line2d_80">
      <g>
       <use xlink:href="#m5c33295812" x="397.710084" y="75.277169" style="stroke: #000000; stroke-width: 0.8"/>
      </g>
     </g>
     <g id="text_23">
      <!-- $\mathdefault{0.5}$ -->
      <g transform="translate(375.010084 80.481466) scale(0.15 -0.15)">
       <use xlink:href="#Cmr10-30" transform="translate(0 0.390625)"/>
       <use xlink:href="#Cmr10-2e" transform="translate(50 0.390625)"/>
       <use xlink:href="#Cmr10-35" transform="translate(77.685547 0.390625)"/>
      </g>
     </g>
    </g>
    <g id="ytick_26">
     <g id="line2d_81">
      <g>
       <use xlink:href="#m5c33295812" x="397.710084" y="14.993282" style="stroke: #000000; stroke-width: 0.8"/>
      </g>
     </g>
     <g id="text_24">
      <!-- $\mathdefault{1.0}$ -->
      <g transform="translate(375.010084 20.197578) scale(0.15 -0.15)">
       <use xlink:href="#Cmr10-31" transform="translate(0 0.390625)"/>
       <use xlink:href="#Cmr10-2e" transform="translate(50 0.390625)"/>
       <use xlink:href="#Cmr10-30" transform="translate(77.685547 0.390625)"/>
      </g>
     </g>
    </g>
   </g>
   <g id="line2d_82">
    <path d="M 412.223251 256.12883 
L 415.155204 255.886088 
L 418.087157 255.15884 
L 421.01911 253.950013 
L 423.951063 252.264476 
L 426.883016 250.109016 
L 429.814969 247.492311 
L 432.746922 244.424899 
L 435.678875 240.91913 
L 438.610828 236.989122 
L 441.54278 232.650698 
L 444.474733 227.921329 
L 447.406686 222.820058 
L 450.338639 217.367425 
L 453.270592 211.585387 
L 456.202545 205.497226 
L 459.134498 199.127457 
L 462.066451 192.501728 
L 464.998404 185.646719 
L 467.930357 178.590033 
L 470.86231 171.360085 
L 473.794263 163.985986 
L 476.726216 156.49743 
L 479.658169 148.924571 
L 482.590122 141.297902 
L 485.522075 133.648132 
L 488.454028 126.006065 
L 491.385981 118.402473 
L 494.317934 110.867972 
L 497.249886 103.432901 
L 500.181839 96.1272 
L 503.113792 88.980284 
L 506.045745 82.020933 
L 508.977698 75.277169 
L 511.909651 68.776147 
L 514.841604 62.544044 
L 517.773557 56.605955 
L 520.70551 50.98579 
L 523.637463 45.70618 
L 526.569416 40.788384 
L 529.501369 36.252204 
L 532.433322 32.115905 
L 535.365275 28.396144 
L 538.297228 25.107898 
L 541.229181 22.264408 
L 544.161134 19.877124 
L 547.093087 17.955658 
L 550.02504 16.507747 
L 552.956993 15.539222 
L 555.888945 15.053982 
L 558.820898 15.053982 
L 561.752851 15.539222 
L 564.684804 16.507747 
L 567.616757 17.955658 
L 570.54871 19.877124 
L 573.480663 22.264408 
L 576.412616 25.107898 
L 579.344569 28.396144 
L 582.276522 32.115905 
L 585.208475 36.252204 
L 588.140428 40.788384 
L 591.072381 45.70618 
L 594.004334 50.98579 
L 596.936287 56.605955 
L 599.86824 62.544044 
L 602.800193 68.776147 
L 605.732146 75.277169 
L 608.664099 82.020933 
L 611.596051 88.980284 
L 614.528004 96.1272 
L 617.459957 103.432901 
L 620.39191 110.867972 
L 623.323863 118.402473 
L 626.255816 126.006065 
L 629.187769 133.648132 
L 632.119722 141.297902 
L 635.051675 148.924571 
L 637.983628 156.49743 
L 640.915581 163.985986 
L 643.847534 171.360085 
L 646.779487 178.590033 
L 649.71144 185.646719 
L 652.643393 192.501728 
L 655.575346 199.127457 
L 658.507299 205.497226 
L 661.439252 211.585387 
L 664.371205 217.367425 
L 667.303158 222.820058 
L 670.23511 227.921329 
L 673.167063 232.650698 
L 676.099016 236.989122 
L 679.030969 240.91913 
L 681.962922 244.424899 
L 684.894875 247.492311 
L 687.826828 250.109016 
L 690.758781 252.264476 
L 693.690734 253.950013 
L 696.622687 255.15884 
L 699.55464 255.886088 
L 702.486593 256.12883 
" clip-path="url(#p879a84bf6c)" style="fill: none; stroke: #2ca02c; stroke-width: 1.5; stroke-linecap: square"/>
   </g>
   <g id="patch_8">
    <path d="M 397.710084 268.182572 
L 397.710084 3.00024 
" style="fill: none; stroke: #000000; stroke-width: 0.8; stroke-linejoin: miter; stroke-linecap: square"/>
   </g>
   <g id="patch_9">
    <path d="M 716.99976 268.182572 
L 716.99976 3.00024 
" style="fill: none; stroke: #000000; stroke-width: 0.8; stroke-linejoin: miter; stroke-linecap: square"/>
   </g>
   <g id="patch_10">
    <path d="M 397.710084 268.182572 
L 716.99976 268.182572 
" style="fill: none; stroke: #000000; stroke-width: 0.8; stroke-linejoin: miter; stroke-linecap: square"/>
   </g>
   <g id="patch_11">
    <path d="M 397.710084 3.00024 
L 716.99976 3.00024 
" style="fill: none; stroke: #000000; stroke-width: 0.8; stroke-linejoin: miter; stroke-linecap: square"/>
   </g>
   <g id="axes_3">
    <g id="patch_12">
     <path d="M 509.461471 215.146106 
L 605.248373 215.146106 
L 605.248373 135.591406 
L 509.461471 135.591406 
z
" style="fill: #ffffff"/>
    </g>
    <g id="matplotlib.axis_5">
     <g id="xtick_43">
      <g id="line2d_83">
       <path d="M 522.707288 215.146106 
L 522.707288 135.591406 
" clip-path="url(#p5c1c95b241)" style="fill: none; stroke-dasharray: 2.22,0.96; stroke-dashoffset: 0; stroke: #b0b0b0; stroke-opacity: 0.5; stroke-width: 0.6"/>
      </g>
      <g id="line2d_84">
       <g>
        <use xlink:href="#m9928ae235f" x="522.707288" y="215.146106" style="stroke: #000000; stroke-width: 0.8"/>
       </g>
      </g>
      <g id="text_25">
       <!-- $\mathdefault{-2.5}$ -->
       <g transform="translate(507.547204 229.023831) scale(0.15 -0.15)">
        <use xlink:href="#CMSY10-0" transform="scale(0.996264)"/>
        <use xlink:href="#CMR17-32" transform="translate(77.487468 0) scale(0.996264)"/>
        <use xlink:href="#CMMI12-3a" transform="translate(123.177945 0) scale(0.996264)"/>
        <use xlink:href="#CMR17-35" transform="translate(150.275122 0) scale(0.996264)"/>
       </g>
      </g>
     </g>
     <g id="xtick_44">
      <g id="line2d_85">
       <path d="M 557.354922 215.146106 
L 557.354922 135.591406 
" clip-path="url(#p5c1c95b241)" style="fill: none; stroke-dasharray: 2.22,0.96; stroke-dashoffset: 0; stroke: #b0b0b0; stroke-opacity: 0.5; stroke-width: 0.6"/>
      </g>
      <g id="line2d_86">
       <g>
        <use xlink:href="#m9928ae235f" x="557.354922" y="215.146106" style="stroke: #000000; stroke-width: 0.8"/>
       </g>
      </g>
      <g id="text_26">
       <!-- $\mathdefault{0.0}$ -->
       <g transform="translate(548.006396 229.023831) scale(0.15 -0.15)">
        <use xlink:href="#CMR17-30" transform="scale(0.996264)"/>
        <use xlink:href="#CMMI12-3a" transform="translate(45.690477 0) scale(0.996264)"/>
        <use xlink:href="#CMR17-30" transform="translate(72.787654 0) scale(0.996264)"/>
       </g>
      </g>
     </g>
     <g id="xtick_45">
      <g id="line2d_87">
       <path d="M 592.002556 215.146106 
L 592.002556 135.591406 
" clip-path="url(#p5c1c95b241)" style="fill: none; stroke-dasharray: 2.22,0.96; stroke-dashoffset: 0; stroke: #b0b0b0; stroke-opacity: 0.5; stroke-width: 0.6"/>
      </g>
      <g id="line2d_88">
       <g>
        <use xlink:href="#m9928ae235f" x="592.002556" y="215.146106" style="stroke: #000000; stroke-width: 0.8"/>
       </g>
      </g>
      <g id="text_27">
       <!-- $\mathdefault{2.5}$ -->
       <g transform="translate(582.65403 229.023831) scale(0.15 -0.15)">
        <use xlink:href="#CMR17-32" transform="scale(0.996264)"/>
        <use xlink:href="#CMMI12-3a" transform="translate(45.690477 0) scale(0.996264)"/>
        <use xlink:href="#CMR17-35" transform="translate(72.787654 0) scale(0.996264)"/>
       </g>
      </g>
     </g>
     <g id="xtick_46">
      <g id="line2d_89">
       <g>
        <use xlink:href="#m7d466fb98f" x="515.777761" y="215.146106" style="stroke: #000000; stroke-width: 0.6"/>
       </g>
      </g>
     </g>
     <g id="xtick_47">
      <g id="line2d_90">
       <g>
        <use xlink:href="#m7d466fb98f" x="529.636815" y="215.146106" style="stroke: #000000; stroke-width: 0.6"/>
       </g>
      </g>
     </g>
     <g id="xtick_48">
      <g id="line2d_91">
       <g>
        <use xlink:href="#m7d466fb98f" x="536.566341" y="215.146106" style="stroke: #000000; stroke-width: 0.6"/>
       </g>
      </g>
     </g>
     <g id="xtick_49">
      <g id="line2d_92">
       <g>
        <use xlink:href="#m7d466fb98f" x="543.495868" y="215.146106" style="stroke: #000000; stroke-width: 0.6"/>
       </g>
      </g>
     </g>
     <g id="xtick_50">
      <g id="line2d_93">
       <g>
        <use xlink:href="#m7d466fb98f" x="550.425395" y="215.146106" style="stroke: #000000; stroke-width: 0.6"/>
       </g>
      </g>
     </g>
     <g id="xtick_51">
      <g id="line2d_94">
       <g>
        <use xlink:href="#m7d466fb98f" x="564.284449" y="215.146106" style="stroke: #000000; stroke-width: 0.6"/>
       </g>
      </g>
     </g>
     <g id="xtick_52">
      <g id="line2d_95">
       <g>
        <use xlink:href="#m7d466fb98f" x="571.213976" y="215.146106" style="stroke: #000000; stroke-width: 0.6"/>
       </g>
      </g>
     </g>
     <g id="xtick_53">
      <g id="line2d_96">
       <g>
        <use xlink:href="#m7d466fb98f" x="578.143502" y="215.146106" style="stroke: #000000; stroke-width: 0.6"/>
       </g>
      </g>
     </g>
     <g id="xtick_54">
      <g id="line2d_97">
       <g>
        <use xlink:href="#m7d466fb98f" x="585.073029" y="215.146106" style="stroke: #000000; stroke-width: 0.6"/>
       </g>
      </g>
     </g>
     <g id="xtick_55">
      <g id="line2d_98">
       <g>
        <use xlink:href="#m7d466fb98f" x="598.932083" y="215.146106" style="stroke: #000000; stroke-width: 0.6"/>
       </g>
      </g>
     </g>
    </g>
    <g id="matplotlib.axis_6">
     <g id="ytick_27">
      <g id="line2d_99">
       <path d="M 509.461471 211.534536 
L 605.248373 211.534536 
" clip-path="url(#p5c1c95b241)" style="fill: none; stroke-dasharray: 2.22,0.96; stroke-dashoffset: 0; stroke: #b0b0b0; stroke-opacity: 0.5; stroke-width: 0.6"/>
      </g>
      <g id="line2d_100">
       <g>
        <use xlink:href="#m5c33295812" x="509.461471" y="211.534536" style="stroke: #000000; stroke-width: 0.8"/>
       </g>
      </g>
      <g id="text_28">
       <!-- $\mathdefault{-1}$ -->
       <g transform="translate(487.022117 216.723398) scale(0.15 -0.15)">
        <use xlink:href="#CMSY10-0" transform="scale(0.996264)"/>
        <use xlink:href="#CMR17-31" transform="translate(77.487468 0) scale(0.996264)"/>
       </g>
      </g>
     </g>
     <g id="ytick_28">
      <g id="line2d_101">
       <path d="M 509.461471 175.368756 
L 605.248373 175.368756 
" clip-path="url(#p5c1c95b241)" style="fill: none; stroke-dasharray: 2.22,0.96; stroke-dashoffset: 0; stroke: #b0b0b0; stroke-opacity: 0.5; stroke-width: 0.6"/>
      </g>
      <g id="line2d_102">
       <g>
        <use xlink:href="#m5c33295812" x="509.461471" y="175.368756" style="stroke: #000000; stroke-width: 0.8"/>
       </g>
      </g>
      <g id="text_29">
       <!-- $\mathdefault{0}$ -->
       <g transform="translate(498.645233 180.557619) scale(0.15 -0.15)">
        <use xlink:href="#CMR17-30" transform="scale(0.996264)"/>
       </g>
      </g>
     </g>
     <g id="ytick_29">
      <g id="line2d_103">
       <path d="M 509.461471 139.202977 
L 605.248373 139.202977 
" clip-path="url(#p5c1c95b241)" style="fill: none; stroke-dasharray: 2.22,0.96; stroke-dashoffset: 0; stroke: #b0b0b0; stroke-opacity: 0.5; stroke-width: 0.6"/>
      </g>
      <g id="line2d_104">
       <g>
        <use xlink:href="#m5c33295812" x="509.461471" y="139.202977" style="stroke: #000000; stroke-width: 0.8"/>
       </g>
      </g>
      <g id="text_30">
       <!-- $\mathdefault{1}$ -->
       <g transform="translate(498.645233 144.391839) scale(0.15 -0.15)">
        <use xlink:href="#CMR17-31" transform="scale(0.996264)"/>
       </g>
      </g>
     </g>
     <g id="ytick_30">
      <g id="line2d_105">
       <g>
        <use xlink:href="#m495eee433e" x="509.461471" y="204.30138" style="stroke: #000000; stroke-width: 0.6"/>
       </g>
      </g>
     </g>
     <g id="ytick_31">
      <g id="line2d_106">
       <g>
        <use xlink:href="#m495eee433e" x="509.461471" y="197.068224" style="stroke: #000000; stroke-width: 0.6"/>
       </g>
      </g>
     </g>
     <g id="ytick_32">
      <g id="line2d_107">
       <g>
        <use xlink:href="#m495eee433e" x="509.461471" y="189.835068" style="stroke: #000000; stroke-width: 0.6"/>
       </g>
      </g>
     </g>
     <g id="ytick_33">
      <g id="line2d_108">
       <g>
        <use xlink:href="#m495eee433e" x="509.461471" y="182.601912" style="stroke: #000000; stroke-width: 0.6"/>
       </g>
      </g>
     </g>
     <g id="ytick_34">
      <g id="line2d_109">
       <g>
        <use xlink:href="#m495eee433e" x="509.461471" y="168.1356" style="stroke: #000000; stroke-width: 0.6"/>
       </g>
      </g>
     </g>
     <g id="ytick_35">
      <g id="line2d_110">
       <g>
        <use xlink:href="#m495eee433e" x="509.461471" y="160.902444" style="stroke: #000000; stroke-width: 0.6"/>
       </g>
      </g>
     </g>
     <g id="ytick_36">
      <g id="line2d_111">
       <g>
        <use xlink:href="#m495eee433e" x="509.461471" y="153.669288" style="stroke: #000000; stroke-width: 0.6"/>
       </g>
      </g>
     </g>
     <g id="ytick_37">
      <g id="line2d_112">
       <g>
        <use xlink:href="#m495eee433e" x="509.461471" y="146.436133" style="stroke: #000000; stroke-width: 0.6"/>
       </g>
      </g>
     </g>
    </g>
    <g id="line2d_113">
     <path d="M 513.815421 175.368756 
L 514.695007 177.662532 
L 515.574592 179.947071 
L 516.454178 182.213175 
L 517.333764 184.451719 
L 518.21335 186.653689 
L 519.092936 188.810219 
L 519.972522 190.912624 
L 520.852108 192.95244 
L 521.731694 194.921453 
L 522.61128 196.811734 
L 523.490865 198.615671 
L 524.370451 200.326001 
L 525.250037 201.935838 
L 526.129623 203.438698 
L 527.009209 204.82853 
L 527.888795 206.099739 
L 528.768381 207.247204 
L 529.647967 208.266306 
L 530.527552 209.152942 
L 531.407138 209.90354 
L 532.286724 210.515079 
L 533.16631 210.985096 
L 534.045896 211.311699 
L 534.925482 211.493572 
L 535.805068 211.529983 
L 536.684654 211.420786 
L 537.56424 211.16642 
L 538.443825 210.76791 
L 539.323411 210.226859 
L 540.202997 209.545447 
L 541.082583 208.726418 
L 541.962169 207.773069 
L 542.841755 206.68924 
L 543.721341 205.479294 
L 544.600927 204.148103 
L 545.480513 202.701029 
L 546.360098 201.143896 
L 547.239684 199.482977 
L 548.11927 197.724958 
L 548.998856 195.876918 
L 549.878442 193.946299 
L 550.758028 191.940875 
L 551.637614 189.868721 
L 552.5172 187.738181 
L 553.396785 185.557834 
L 554.276371 183.336458 
L 555.155957 181.083 
L 556.035543 178.806532 
L 556.915129 176.516222 
L 557.794715 174.221291 
L 558.674301 171.93098 
L 559.553887 169.654512 
L 560.433473 167.401054 
L 561.313058 165.179679 
L 562.192644 162.999331 
L 563.07223 160.868791 
L 563.951816 158.796637 
L 564.831402 156.791213 
L 565.710988 154.860594 
L 566.590574 153.012555 
L 567.47016 151.254536 
L 568.349746 149.593616 
L 569.229331 148.036484 
L 570.108917 146.589409 
L 570.988503 145.258218 
L 571.868089 144.048272 
L 572.747675 142.964443 
L 573.627261 142.011094 
L 574.506847 141.192065 
L 575.386433 140.510653 
L 576.266018 139.969603 
L 577.145604 139.571092 
L 578.02519 139.316726 
L 578.904776 139.207529 
L 579.784362 139.24394 
L 580.663948 139.425813 
L 581.543534 139.752416 
L 582.42312 140.222433 
L 583.302706 140.833972 
L 584.182291 141.584571 
L 585.061877 142.471206 
L 585.941463 143.490308 
L 586.821049 144.637774 
L 587.700635 145.908982 
L 588.580221 147.298814 
L 589.459807 148.801674 
L 590.339393 150.411511 
L 591.218979 152.121841 
L 592.098564 153.925779 
L 592.97815 155.81606 
L 593.857736 157.785072 
L 594.737322 159.824888 
L 595.616908 161.927294 
L 596.496494 164.083823 
L 597.37608 166.285793 
L 598.255666 168.524337 
L 599.135251 170.790441 
L 600.014837 173.074981 
L 600.894423 175.368756 
" clip-path="url(#p5c1c95b241)" style="fill: none; stroke: #ff7f0e; stroke-width: 1.5; stroke-linecap: square"/>
    </g>
    <g id="patch_13">
     <path d="M 509.461471 215.146106 
L 509.461471 135.591406 
" style="fill: none; stroke: #000000; stroke-width: 0.8; stroke-linejoin: miter; stroke-linecap: square"/>
    </g>
    <g id="patch_14">
     <path d="M 605.248373 215.146106 
L 605.248373 135.591406 
" style="fill: none; stroke: #000000; stroke-width: 0.8; stroke-linejoin: miter; stroke-linecap: square"/>
    </g>
    <g id="patch_15">
     <path d="M 509.461471 215.146106 
L 605.248373 215.146106 
" style="fill: none; stroke: #000000; stroke-width: 0.8; stroke-linejoin: miter; stroke-linecap: square"/>
    </g>
    <g id="patch_16">
     <path d="M 509.461471 135.591406 
L 605.248373 135.591406 
" style="fill: none; stroke: #000000; stroke-width: 0.8; stroke-linejoin: miter; stroke-linecap: square"/>
    </g>
   </g>
  </g>
 </g>
 <defs>
  <clipPath id="p9ac6da4997">
   <rect x="36.820408" y="3.00024" width="319.289676" height="265.182333"/>
  </clipPath>
  <clipPath id="p879a84bf6c">
   <rect x="397.710084" y="3.00024" width="319.289676" height="265.182333"/>
  </clipPath>
  <clipPath id="p5c1c95b241">
   <rect x="509.461471" y="135.591406" width="95.786903" height="79.5547"/>
  </clipPath>
 </defs>
</svg>
