<?xml version="1.0" encoding="utf-8" standalone="no"?>
<!DOCTYPE svg PUBLIC "-//W3C//DTD SVG 1.1//EN"
  "http://www.w3.org/Graphics/SVG/1.1/DTD/svg11.dtd">
<svg xmlns:xlink="http://www.w3.org/1999/xlink" width="728.39952pt" height="296.39952pt" viewBox="0 0 728.39952 296.39952" xmlns="http://www.w3.org/2000/svg" version="1.1">
 <metadata>
  <rdf:RDF xmlns:dc="http://purl.org/dc/elements/1.1/" xmlns:cc="http://creativecommons.org/ns#" xmlns:rdf="http://www.w3.org/1999/02/22-rdf-syntax-ns#">
   <cc:Work>
    <dc:type rdf:resource="http://purl.org/dc/dcmitype/StillImage"/>
    <dc:date>2022-04-12T10:00:29.812535</dc:date>
    <dc:format>image/svg+xml</dc:format>
    <dc:creator>
     <cc:Agent>
      <dc:title>Matplotlib v3.5.0, https://matplotlib.org/</dc:title>
     </cc:Agent>
    </dc:creator>
   </cc:Work>
  </rdf:RDF>
 </metadata>
 <defs>
  <style type="text/css">*{stroke-linejoin: round; stroke-linecap: butt}</style>
 </defs>
 <g id="figure_1">
  <g id="patch_1">
   <path d="M 0 296.39952 
L 728.39952 296.39952 
L 728.39952 0 
L 0 0 
L 0 296.39952 
z
" style="fill: none"/>
  </g>
  <g id="axes_1">
   <g id="patch_2">
    <path d="M 41.020168 272.416051 
L 360.59976 272.416051 
L 360.59976 7.2 
L 41.020168 7.2 
z
" style="fill: #ffffff"/>
   </g>
   <g id="matplotlib.axis_1">
    <g id="xtick_1">
     <g id="line2d_1">
      <path d="M 62.093586 272.416051 
L 62.093586 7.2 
" clip-path="url(#pa4fd8606dd)" style="fill: none; stroke-dasharray: 2.22,0.96; stroke-dashoffset: 0; stroke: #b0b0b0; stroke-opacity: 0.5; stroke-width: 0.6"/>
     </g>
     <g id="line2d_2">
      <defs>
       <path id="md3fcdf53cc" d="M 0 0 
L 0 -6 
" style="stroke: #000000; stroke-width: 0.8"/>
      </defs>
      <g>
       <use xlink:href="#md3fcdf53cc" x="62.093586" y="272.416051" style="stroke: #000000; stroke-width: 0.8"/>
      </g>
     </g>
     <g id="text_1">
      <!-- $\mathdefault{−3}$ -->
      <g transform="translate(52.62391 286.293775)scale(0.15 -0.15)">
       <defs>
        <path id="CMSY10-0" d="M 4218 1472 
C 4326 1472 4442 1472 4442 1600 
C 4442 1728 4326 1728 4218 1728 
L 755 1728 
C 646 1728 531 1728 531 1600 
C 531 1472 646 1472 755 1472 
L 4218 1472 
z
" transform="scale(0.015625)"/>
        <path id="CMR17-33" d="M 1414 2176 
C 1984 2176 2234 1673 2234 1094 
C 2234 322 1824 25 1453 25 
C 1114 25 563 193 390 691 
C 422 678 454 678 486 678 
C 640 678 755 780 755 947 
C 755 1132 614 1216 486 1216 
C 378 1216 211 1164 211 927 
C 211 335 787 -128 1466 -128 
C 2176 -128 2720 432 2720 1087 
C 2720 1718 2208 2176 1600 2246 
C 2086 2347 2554 2776 2554 3353 
C 2554 3856 2048 4224 1472 4224 
C 890 4224 378 3862 378 3347 
C 378 3123 544 3084 627 3084 
C 762 3084 877 3167 877 3334 
C 877 3500 762 3584 627 3584 
C 602 3584 570 3584 544 3571 
C 730 3999 1235 4076 1459 4076 
C 1683 4076 2106 3966 2106 3347 
C 2106 3167 2080 2851 1862 2574 
C 1670 2329 1453 2316 1242 2297 
C 1210 2297 1062 2284 1037 2284 
C 992 2278 966 2272 966 2227 
C 966 2182 973 2176 1101 2176 
L 1414 2176 
z
" transform="scale(0.015625)"/>
       </defs>
       <use xlink:href="#CMSY10-0" transform="scale(0.996264)"/>
       <use xlink:href="#CMR17-33" transform="translate(77.487468 0)scale(0.996264)"/>
      </g>
     </g>
    </g>
    <g id="xtick_2">
     <g id="line2d_3">
      <path d="M 108.332379 272.416051 
L 108.332379 7.2 
" clip-path="url(#pa4fd8606dd)" style="fill: none; stroke-dasharray: 2.22,0.96; stroke-dashoffset: 0; stroke: #b0b0b0; stroke-opacity: 0.5; stroke-width: 0.6"/>
     </g>
     <g id="line2d_4">
      <g>
       <use xlink:href="#md3fcdf53cc" x="108.332379" y="272.416051" style="stroke: #000000; stroke-width: 0.8"/>
      </g>
     </g>
     <g id="text_2">
      <!-- $\mathdefault{−2}$ -->
      <g transform="translate(98.862702 286.293775)scale(0.15 -0.15)">
       <defs>
        <path id="CMR17-32" d="M 2669 990 
L 2554 990 
C 2490 537 2438 460 2413 422 
C 2381 371 1920 371 1830 371 
L 602 371 
C 832 620 1280 1073 1824 1596 
C 2214 1966 2669 2400 2669 3033 
C 2669 3788 2067 4224 1395 4224 
C 691 4224 262 3603 262 3027 
C 262 2777 448 2745 525 2745 
C 589 2745 781 2783 781 3007 
C 781 3206 614 3264 525 3264 
C 486 3264 448 3257 422 3244 
C 544 3788 915 4057 1306 4057 
C 1862 4057 2227 3616 2227 3033 
C 2227 2477 1901 1998 1536 1583 
L 262 147 
L 262 0 
L 2515 0 
L 2669 990 
z
" transform="scale(0.015625)"/>
       </defs>
       <use xlink:href="#CMSY10-0" transform="scale(0.996264)"/>
       <use xlink:href="#CMR17-32" transform="translate(77.487468 0)scale(0.996264)"/>
      </g>
     </g>
    </g>
    <g id="xtick_3">
     <g id="line2d_5">
      <path d="M 154.571171 272.416051 
L 154.571171 7.2 
" clip-path="url(#pa4fd8606dd)" style="fill: none; stroke-dasharray: 2.22,0.96; stroke-dashoffset: 0; stroke: #b0b0b0; stroke-opacity: 0.5; stroke-width: 0.6"/>
     </g>
     <g id="line2d_6">
      <g>
       <use xlink:href="#md3fcdf53cc" x="154.571171" y="272.416051" style="stroke: #000000; stroke-width: 0.8"/>
      </g>
     </g>
     <g id="text_3">
      <!-- $\mathdefault{−1}$ -->
      <g transform="translate(145.101495 286.293775)scale(0.15 -0.15)">
       <defs>
        <path id="CMR17-31" d="M 1702 4083 
C 1702 4217 1696 4224 1606 4224 
C 1357 3927 979 3833 621 3820 
C 602 3820 570 3820 563 3808 
C 557 3795 557 3782 557 3648 
C 755 3648 1088 3686 1344 3839 
L 1344 467 
C 1344 243 1331 166 781 166 
L 589 166 
L 589 0 
C 896 6 1216 12 1523 12 
C 1830 12 2150 6 2458 0 
L 2458 166 
L 2266 166 
C 1715 166 1702 236 1702 467 
L 1702 4083 
z
" transform="scale(0.015625)"/>
       </defs>
       <use xlink:href="#CMSY10-0" transform="scale(0.996264)"/>
       <use xlink:href="#CMR17-31" transform="translate(77.487468 0)scale(0.996264)"/>
      </g>
     </g>
    </g>
    <g id="xtick_4">
     <g id="line2d_7">
      <path d="M 200.809964 272.416051 
L 200.809964 7.2 
" clip-path="url(#pa4fd8606dd)" style="fill: none; stroke-dasharray: 2.22,0.96; stroke-dashoffset: 0; stroke: #b0b0b0; stroke-opacity: 0.5; stroke-width: 0.6"/>
     </g>
     <g id="line2d_8">
      <g>
       <use xlink:href="#md3fcdf53cc" x="200.809964" y="272.416051" style="stroke: #000000; stroke-width: 0.8"/>
      </g>
     </g>
     <g id="text_4">
      <!-- $\mathdefault{0}$ -->
      <g transform="translate(197.151845 286.293775)scale(0.15 -0.15)">
       <defs>
        <path id="CMR17-30" d="M 2688 2038 
C 2688 2430 2682 3099 2413 3613 
C 2176 4063 1798 4224 1466 4224 
C 1158 4224 768 4082 525 3620 
C 269 3137 243 2539 243 2038 
C 243 1671 250 1112 448 623 
C 723 -39 1216 -128 1466 -128 
C 1760 -128 2208 -7 2470 604 
C 2662 1048 2688 1568 2688 2038 
z
M 1466 -26 
C 1056 -26 813 328 723 816 
C 653 1196 653 1749 653 2109 
C 653 2604 653 3015 736 3407 
C 858 3954 1216 4121 1466 4121 
C 1728 4121 2067 3947 2189 3420 
C 2272 3054 2278 2623 2278 2109 
C 2278 1691 2278 1176 2202 797 
C 2067 96 1690 -26 1466 -26 
z
" transform="scale(0.015625)"/>
       </defs>
       <use xlink:href="#CMR17-30" transform="scale(0.996264)"/>
      </g>
     </g>
    </g>
    <g id="xtick_5">
     <g id="line2d_9">
      <path d="M 247.048756 272.416051 
L 247.048756 7.2 
" clip-path="url(#pa4fd8606dd)" style="fill: none; stroke-dasharray: 2.22,0.96; stroke-dashoffset: 0; stroke: #b0b0b0; stroke-opacity: 0.5; stroke-width: 0.6"/>
     </g>
     <g id="line2d_10">
      <g>
       <use xlink:href="#md3fcdf53cc" x="247.048756" y="272.416051" style="stroke: #000000; stroke-width: 0.8"/>
      </g>
     </g>
     <g id="text_5">
      <!-- $\mathdefault{1}$ -->
      <g transform="translate(243.390638 286.293775)scale(0.15 -0.15)">
       <use xlink:href="#CMR17-31" transform="scale(0.996264)"/>
      </g>
     </g>
    </g>
    <g id="xtick_6">
     <g id="line2d_11">
      <path d="M 293.287549 272.416051 
L 293.287549 7.2 
" clip-path="url(#pa4fd8606dd)" style="fill: none; stroke-dasharray: 2.22,0.96; stroke-dashoffset: 0; stroke: #b0b0b0; stroke-opacity: 0.5; stroke-width: 0.6"/>
     </g>
     <g id="line2d_12">
      <g>
       <use xlink:href="#md3fcdf53cc" x="293.287549" y="272.416051" style="stroke: #000000; stroke-width: 0.8"/>
      </g>
     </g>
     <g id="text_6">
      <!-- $\mathdefault{2}$ -->
      <g transform="translate(289.62943 286.293775)scale(0.15 -0.15)">
       <use xlink:href="#CMR17-32" transform="scale(0.996264)"/>
      </g>
     </g>
    </g>
    <g id="xtick_7">
     <g id="line2d_13">
      <path d="M 339.526342 272.416051 
L 339.526342 7.2 
" clip-path="url(#pa4fd8606dd)" style="fill: none; stroke-dasharray: 2.22,0.96; stroke-dashoffset: 0; stroke: #b0b0b0; stroke-opacity: 0.5; stroke-width: 0.6"/>
     </g>
     <g id="line2d_14">
      <g>
       <use xlink:href="#md3fcdf53cc" x="339.526342" y="272.416051" style="stroke: #000000; stroke-width: 0.8"/>
      </g>
     </g>
     <g id="text_7">
      <!-- $\mathdefault{3}$ -->
      <g transform="translate(335.868223 286.293775)scale(0.15 -0.15)">
       <use xlink:href="#CMR17-33" transform="scale(0.996264)"/>
      </g>
     </g>
    </g>
   </g>
   <g id="matplotlib.axis_2">
    <g id="ytick_1">
     <g id="line2d_15">
      <path d="M 41.020168 260.375952 
L 360.59976 260.375952 
" clip-path="url(#pa4fd8606dd)" style="fill: none; stroke-dasharray: 2.22,0.96; stroke-dashoffset: 0; stroke: #b0b0b0; stroke-opacity: 0.5; stroke-width: 0.6"/>
     </g>
     <g id="line2d_16">
      <defs>
       <path id="ma7bec31fbe" d="M 0 0 
L 6 0 
" style="stroke: #000000; stroke-width: 0.8"/>
      </defs>
      <g>
       <use xlink:href="#ma7bec31fbe" x="41.020168" y="260.375952" style="stroke: #000000; stroke-width: 0.8"/>
      </g>
     </g>
     <g id="text_8">
      <!-- $\mathdefault{−1.0}$ -->
      <g transform="translate(7.2 265.564814)scale(0.15 -0.15)">
       <defs>
        <path id="CMMI12-3a" d="M 1178 307 
C 1178 492 1024 620 870 620 
C 685 620 557 467 557 313 
C 557 128 710 0 864 0 
C 1050 0 1178 153 1178 307 
z
" transform="scale(0.015625)"/>
       </defs>
       <use xlink:href="#CMSY10-0" transform="scale(0.996264)"/>
       <use xlink:href="#CMR17-31" transform="translate(77.487468 0)scale(0.996264)"/>
       <use xlink:href="#CMMI12-3a" transform="translate(123.177945 0)scale(0.996264)"/>
       <use xlink:href="#CMR17-30" transform="translate(150.275122 0)scale(0.996264)"/>
      </g>
     </g>
    </g>
    <g id="ytick_2">
     <g id="line2d_17">
      <path d="M 41.020168 200.091988 
L 360.59976 200.091988 
" clip-path="url(#pa4fd8606dd)" style="fill: none; stroke-dasharray: 2.22,0.96; stroke-dashoffset: 0; stroke: #b0b0b0; stroke-opacity: 0.5; stroke-width: 0.6"/>
     </g>
     <g id="line2d_18">
      <g>
       <use xlink:href="#ma7bec31fbe" x="41.020168" y="200.091988" style="stroke: #000000; stroke-width: 0.8"/>
      </g>
     </g>
     <g id="text_9">
      <!-- $\mathdefault{−0.5}$ -->
      <g transform="translate(7.2 205.280851)scale(0.15 -0.15)">
       <defs>
        <path id="CMR17-35" d="M 730 3750 
C 794 3724 1056 3641 1325 3641 
C 1920 3641 2246 3961 2432 4140 
C 2432 4191 2432 4224 2394 4224 
C 2387 4224 2374 4224 2323 4198 
C 2099 4102 1837 4032 1517 4032 
C 1325 4032 1037 4055 723 4191 
C 653 4224 640 4224 634 4224 
C 602 4224 595 4217 595 4090 
L 595 2231 
C 595 2113 595 2080 659 2080 
C 691 2080 704 2093 736 2139 
C 941 2435 1222 2560 1542 2560 
C 1766 2560 2246 2415 2246 1293 
C 2246 1087 2246 716 2054 422 
C 1894 159 1645 25 1370 25 
C 947 25 518 319 403 812 
C 429 806 480 793 506 793 
C 589 793 749 838 749 1036 
C 749 1209 627 1280 506 1280 
C 358 1280 262 1190 262 1011 
C 262 454 704 -128 1382 -128 
C 2042 -128 2669 441 2669 1267 
C 2669 2054 2170 2662 1549 2662 
C 1222 2662 947 2540 730 2304 
L 730 3750 
z
" transform="scale(0.015625)"/>
       </defs>
       <use xlink:href="#CMSY10-0" transform="scale(0.996264)"/>
       <use xlink:href="#CMR17-30" transform="translate(77.487468 0)scale(0.996264)"/>
       <use xlink:href="#CMMI12-3a" transform="translate(123.177945 0)scale(0.996264)"/>
       <use xlink:href="#CMR17-35" transform="translate(150.275122 0)scale(0.996264)"/>
      </g>
     </g>
    </g>
    <g id="ytick_3">
     <g id="line2d_19">
      <path d="M 41.020168 139.808025 
L 360.59976 139.808025 
" clip-path="url(#pa4fd8606dd)" style="fill: none; stroke-dasharray: 2.22,0.96; stroke-dashoffset: 0; stroke: #b0b0b0; stroke-opacity: 0.5; stroke-width: 0.6"/>
     </g>
     <g id="line2d_20">
      <g>
       <use xlink:href="#ma7bec31fbe" x="41.020168" y="139.808025" style="stroke: #000000; stroke-width: 0.8"/>
      </g>
     </g>
     <g id="text_10">
      <!-- $\mathdefault{0.0}$ -->
      <g transform="translate(18.823116 144.996888)scale(0.15 -0.15)">
       <use xlink:href="#CMR17-30" transform="scale(0.996264)"/>
       <use xlink:href="#CMMI12-3a" transform="translate(45.690477 0)scale(0.996264)"/>
       <use xlink:href="#CMR17-30" transform="translate(72.787654 0)scale(0.996264)"/>
      </g>
     </g>
    </g>
    <g id="ytick_4">
     <g id="line2d_21">
      <path d="M 41.020168 79.524062 
L 360.59976 79.524062 
" clip-path="url(#pa4fd8606dd)" style="fill: none; stroke-dasharray: 2.22,0.96; stroke-dashoffset: 0; stroke: #b0b0b0; stroke-opacity: 0.5; stroke-width: 0.6"/>
     </g>
     <g id="line2d_22">
      <g>
       <use xlink:href="#ma7bec31fbe" x="41.020168" y="79.524062" style="stroke: #000000; stroke-width: 0.8"/>
      </g>
     </g>
     <g id="text_11">
      <!-- $\mathdefault{0.5}$ -->
      <g transform="translate(18.823116 84.712924)scale(0.15 -0.15)">
       <use xlink:href="#CMR17-30" transform="scale(0.996264)"/>
       <use xlink:href="#CMMI12-3a" transform="translate(45.690477 0)scale(0.996264)"/>
       <use xlink:href="#CMR17-35" transform="translate(72.787654 0)scale(0.996264)"/>
      </g>
     </g>
    </g>
    <g id="ytick_5">
     <g id="line2d_23">
      <path d="M 41.020168 19.240099 
L 360.59976 19.240099 
" clip-path="url(#pa4fd8606dd)" style="fill: none; stroke-dasharray: 2.22,0.96; stroke-dashoffset: 0; stroke: #b0b0b0; stroke-opacity: 0.5; stroke-width: 0.6"/>
     </g>
     <g id="line2d_24">
      <g>
       <use xlink:href="#ma7bec31fbe" x="41.020168" y="19.240099" style="stroke: #000000; stroke-width: 0.8"/>
      </g>
     </g>
     <g id="text_12">
      <!-- $\mathdefault{1.0}$ -->
      <g transform="translate(18.823116 24.428961)scale(0.15 -0.15)">
       <use xlink:href="#CMR17-31" transform="scale(0.996264)"/>
       <use xlink:href="#CMMI12-3a" transform="translate(45.690477 0)scale(0.996264)"/>
       <use xlink:href="#CMR17-30" transform="translate(72.787654 0)scale(0.996264)"/>
      </g>
     </g>
    </g>
   </g>
   <g id="line2d_25">
    <path d="M 55.546513 139.808025 
L 58.481128 147.454916 
L 61.415743 155.071015 
L 64.350358 162.625655 
L 67.284974 170.088417 
L 70.219589 177.429251 
L 73.154204 184.618597 
L 76.088819 191.627507 
L 79.023434 198.427758 
L 81.958049 204.991968 
L 84.892665 211.293705 
L 87.82728 217.307594 
L 90.761895 223.009421 
L 93.69651 228.376224 
L 96.631125 233.386395 
L 99.56574 238.019759 
L 102.500356 242.257658 
L 105.434971 246.08303 
L 108.369586 249.480469 
L 111.304201 252.436296 
L 114.238816 254.938608 
L 117.173431 256.977331 
L 120.108047 258.544254 
L 123.042662 259.633068 
L 125.977277 260.239389 
L 128.911892 260.360776 
L 131.846507 259.996739 
L 134.781123 259.148744 
L 137.715738 257.820207 
L 140.650353 256.016476 
L 143.584968 253.744814 
L 146.519583 251.01437 
L 149.454198 247.836137 
L 152.388814 244.222912 
L 155.323429 240.189246 
L 158.258044 235.75138 
L 161.192659 230.927184 
L 164.127274 225.736084 
L 167.061889 220.198981 
L 169.996505 214.338172 
L 172.93112 208.177257 
L 175.865735 201.741043 
L 178.80035 195.055447 
L 181.734965 188.147389 
L 184.66958 181.044685 
L 187.604196 173.775935 
L 190.538811 166.370409 
L 193.473426 158.857926 
L 196.408041 151.268735 
L 199.342656 143.633396 
L 202.277271 135.982654 
L 205.211887 128.347315 
L 208.146502 120.758125 
L 211.081117 113.245641 
L 214.015732 105.840115 
L 216.950347 98.571366 
L 219.884963 91.468662 
L 222.819578 84.560604 
L 225.754193 77.875007 
L 228.688808 71.438793 
L 231.623423 65.277878 
L 234.558038 59.417069 
L 237.492654 53.879967 
L 240.427269 48.688866 
L 243.361884 43.86467 
L 246.296499 39.426804 
L 249.231114 35.393138 
L 252.165729 31.779914 
L 255.100345 28.601681 
L 258.03496 25.871236 
L 260.969575 23.599575 
L 263.90419 21.795844 
L 266.838805 20.467307 
L 269.77342 19.619312 
L 272.708036 19.255275 
L 275.642651 19.376661 
L 278.577266 19.982982 
L 281.511881 21.071797 
L 284.446496 22.63872 
L 287.381111 24.677442 
L 290.315727 27.179755 
L 293.250342 30.135582 
L 296.184957 33.533021 
L 299.119572 37.358392 
L 302.054187 41.596292 
L 304.988802 46.229655 
L 307.923418 51.239826 
L 310.858033 56.60663 
L 313.792648 62.308456 
L 316.727263 68.322346 
L 319.661878 74.624083 
L 322.596494 81.188293 
L 325.531109 87.988544 
L 328.465724 94.997454 
L 331.400339 102.1868 
L 334.334954 109.527633 
L 337.269569 116.990395 
L 340.204185 124.545036 
L 343.1388 132.161135 
L 346.073415 139.808025 
" clip-path="url(#pa4fd8606dd)" style="fill: none; stroke: #d62728; stroke-width: 1.5; stroke-linecap: square"/>
   </g>
   <g id="patch_3">
    <path d="M 41.020168 272.416051 
L 41.020168 7.2 
" style="fill: none; stroke: #000000; stroke-width: 0.8; stroke-linejoin: miter; stroke-linecap: square"/>
   </g>
   <g id="patch_4">
    <path d="M 360.59976 272.416051 
L 360.59976 7.2 
" style="fill: none; stroke: #000000; stroke-width: 0.8; stroke-linejoin: miter; stroke-linecap: square"/>
   </g>
   <g id="patch_5">
    <path d="M 41.020168 272.416051 
L 360.59976 272.416051 
" style="fill: none; stroke: #000000; stroke-width: 0.8; stroke-linejoin: miter; stroke-linecap: square"/>
   </g>
   <g id="patch_6">
    <path d="M 41.020168 7.2 
L 360.59976 7.2 
" style="fill: none; stroke: #000000; stroke-width: 0.8; stroke-linejoin: miter; stroke-linecap: square"/>
   </g>
  </g>
  <g id="axes_2">
   <g id="patch_7">
    <path d="M 401.619928 272.416051 
L 721.19952 272.416051 
L 721.19952 7.2 
L 401.619928 7.2 
z
" style="fill: #ffffff"/>
   </g>
   <g id="matplotlib.axis_3">
    <g id="xtick_8">
     <g id="line2d_26">
      <g>
       <use xlink:href="#md3fcdf53cc" x="422.693346" y="272.416051" style="stroke: #000000; stroke-width: 0.8"/>
      </g>
     </g>
     <g id="text_13">
      <!-- $\mathdefault{−3}$ -->
      <g transform="translate(413.22367 286.293775)scale(0.15 -0.15)">
       <use xlink:href="#CMSY10-0" transform="scale(0.996264)"/>
       <use xlink:href="#CMR17-33" transform="translate(77.487468 0)scale(0.996264)"/>
      </g>
     </g>
    </g>
    <g id="xtick_9">
     <g id="line2d_27">
      <g>
       <use xlink:href="#md3fcdf53cc" x="468.932139" y="272.416051" style="stroke: #000000; stroke-width: 0.8"/>
      </g>
     </g>
     <g id="text_14">
      <!-- $\mathdefault{−2}$ -->
      <g transform="translate(459.462462 286.293775)scale(0.15 -0.15)">
       <use xlink:href="#CMSY10-0" transform="scale(0.996264)"/>
       <use xlink:href="#CMR17-32" transform="translate(77.487468 0)scale(0.996264)"/>
      </g>
     </g>
    </g>
    <g id="xtick_10">
     <g id="line2d_28">
      <g>
       <use xlink:href="#md3fcdf53cc" x="515.170931" y="272.416051" style="stroke: #000000; stroke-width: 0.8"/>
      </g>
     </g>
     <g id="text_15">
      <!-- $\mathdefault{−1}$ -->
      <g transform="translate(505.701255 286.293775)scale(0.15 -0.15)">
       <use xlink:href="#CMSY10-0" transform="scale(0.996264)"/>
       <use xlink:href="#CMR17-31" transform="translate(77.487468 0)scale(0.996264)"/>
      </g>
     </g>
    </g>
    <g id="xtick_11">
     <g id="line2d_29">
      <g>
       <use xlink:href="#md3fcdf53cc" x="561.409724" y="272.416051" style="stroke: #000000; stroke-width: 0.8"/>
      </g>
     </g>
     <g id="text_16">
      <!-- $\mathdefault{0}$ -->
      <g transform="translate(557.751605 286.293775)scale(0.15 -0.15)">
       <use xlink:href="#CMR17-30" transform="scale(0.996264)"/>
      </g>
     </g>
    </g>
    <g id="xtick_12">
     <g id="line2d_30">
      <g>
       <use xlink:href="#md3fcdf53cc" x="607.648516" y="272.416051" style="stroke: #000000; stroke-width: 0.8"/>
      </g>
     </g>
     <g id="text_17">
      <!-- $\mathdefault{1}$ -->
      <g transform="translate(603.990398 286.293775)scale(0.15 -0.15)">
       <use xlink:href="#CMR17-31" transform="scale(0.996264)"/>
      </g>
     </g>
    </g>
    <g id="xtick_13">
     <g id="line2d_31">
      <g>
       <use xlink:href="#md3fcdf53cc" x="653.887309" y="272.416051" style="stroke: #000000; stroke-width: 0.8"/>
      </g>
     </g>
     <g id="text_18">
      <!-- $\mathdefault{2}$ -->
      <g transform="translate(650.22919 286.293775)scale(0.15 -0.15)">
       <use xlink:href="#CMR17-32" transform="scale(0.996264)"/>
      </g>
     </g>
    </g>
    <g id="xtick_14">
     <g id="line2d_32">
      <g>
       <use xlink:href="#md3fcdf53cc" x="700.126102" y="272.416051" style="stroke: #000000; stroke-width: 0.8"/>
      </g>
     </g>
     <g id="text_19">
      <!-- $\mathdefault{3}$ -->
      <g transform="translate(696.467983 286.293775)scale(0.15 -0.15)">
       <use xlink:href="#CMR17-33" transform="scale(0.996264)"/>
      </g>
     </g>
    </g>
   </g>
   <g id="matplotlib.axis_4">
    <g id="ytick_6">
     <g id="line2d_33">
      <g>
       <use xlink:href="#ma7bec31fbe" x="401.619928" y="260.360776" style="stroke: #000000; stroke-width: 0.8"/>
      </g>
     </g>
     <g id="text_20">
      <!-- $\mathdefault{−1.0}$ -->
      <g transform="translate(367.79976 265.549638)scale(0.15 -0.15)">
       <use xlink:href="#CMSY10-0" transform="scale(0.996264)"/>
       <use xlink:href="#CMR17-31" transform="translate(77.487468 0)scale(0.996264)"/>
       <use xlink:href="#CMMI12-3a" transform="translate(123.177945 0)scale(0.996264)"/>
       <use xlink:href="#CMR17-30" transform="translate(150.275122 0)scale(0.996264)"/>
      </g>
     </g>
    </g>
    <g id="ytick_7">
     <g id="line2d_34">
      <g>
       <use xlink:href="#ma7bec31fbe" x="401.619928" y="200.069223" style="stroke: #000000; stroke-width: 0.8"/>
      </g>
     </g>
     <g id="text_21">
      <!-- $\mathdefault{−0.5}$ -->
      <g transform="translate(367.79976 205.258086)scale(0.15 -0.15)">
       <use xlink:href="#CMSY10-0" transform="scale(0.996264)"/>
       <use xlink:href="#CMR17-30" transform="translate(77.487468 0)scale(0.996264)"/>
       <use xlink:href="#CMMI12-3a" transform="translate(123.177945 0)scale(0.996264)"/>
       <use xlink:href="#CMR17-35" transform="translate(150.275122 0)scale(0.996264)"/>
      </g>
     </g>
    </g>
    <g id="ytick_8">
     <g id="line2d_35">
      <g>
       <use xlink:href="#ma7bec31fbe" x="401.619928" y="139.777671" style="stroke: #000000; stroke-width: 0.8"/>
      </g>
     </g>
     <g id="text_22">
      <!-- $\mathdefault{0.0}$ -->
      <g transform="translate(379.422876 144.966533)scale(0.15 -0.15)">
       <use xlink:href="#CMR17-30" transform="scale(0.996264)"/>
       <use xlink:href="#CMMI12-3a" transform="translate(45.690477 0)scale(0.996264)"/>
       <use xlink:href="#CMR17-30" transform="translate(72.787654 0)scale(0.996264)"/>
      </g>
     </g>
    </g>
    <g id="ytick_9">
     <g id="line2d_36">
      <g>
       <use xlink:href="#ma7bec31fbe" x="401.619928" y="79.486119" style="stroke: #000000; stroke-width: 0.8"/>
      </g>
     </g>
     <g id="text_23">
      <!-- $\mathdefault{0.5}$ -->
      <g transform="translate(379.422876 84.674981)scale(0.15 -0.15)">
       <use xlink:href="#CMR17-30" transform="scale(0.996264)"/>
       <use xlink:href="#CMMI12-3a" transform="translate(45.690477 0)scale(0.996264)"/>
       <use xlink:href="#CMR17-35" transform="translate(72.787654 0)scale(0.996264)"/>
      </g>
     </g>
    </g>
    <g id="ytick_10">
     <g id="line2d_37">
      <g>
       <use xlink:href="#ma7bec31fbe" x="401.619928" y="19.194567" style="stroke: #000000; stroke-width: 0.8"/>
      </g>
     </g>
     <g id="text_24">
      <!-- $\mathdefault{1.0}$ -->
      <g transform="translate(379.422876 24.383429)scale(0.15 -0.15)">
       <use xlink:href="#CMR17-31" transform="scale(0.996264)"/>
       <use xlink:href="#CMMI12-3a" transform="translate(45.690477 0)scale(0.996264)"/>
       <use xlink:href="#CMR17-30" transform="translate(72.787654 0)scale(0.996264)"/>
      </g>
     </g>
    </g>
   </g>
   <g id="line2d_38">
    <path d="M 416.146273 260.360776 
L 419.080888 260.118003 
L 422.015503 259.390662 
L 424.950118 258.181682 
L 427.884734 256.49593 
L 430.819349 254.340196 
L 433.753964 251.723158 
L 436.688579 248.655356 
L 439.623194 245.149142 
L 442.557809 241.218634 
L 445.492425 236.879659 
L 448.42704 232.149688 
L 451.361655 227.047768 
L 454.29627 221.594442 
L 457.230885 215.811669 
L 460.1655 209.722734 
L 463.100116 203.352155 
L 466.034731 196.725583 
L 468.969346 189.869703 
L 471.903961 182.81212 
L 474.838576 175.581252 
L 477.773191 168.206215 
L 480.707807 160.716707 
L 483.642422 153.142885 
L 486.577037 145.515246 
L 489.511652 137.864504 
L 492.446267 130.221465 
L 495.380883 122.616906 
L 498.315498 115.081447 
L 501.250113 107.645431 
L 504.184728 100.338801 
L 507.119343 93.190976 
L 510.053958 86.23074 
L 512.988574 79.486119 
L 515.923189 72.98427 
L 518.857804 66.751375 
L 521.792419 60.812531 
L 524.727034 55.191651 
L 527.661649 49.91137 
L 530.596265 44.992949 
L 533.53088 40.456192 
L 536.465495 36.319367 
L 539.40011 32.599133 
L 542.334725 29.310469 
L 545.26934 26.466618 
L 548.203956 24.07903 
L 551.138571 22.157319 
L 554.073186 20.709224 
L 557.007801 19.740576 
L 559.942416 19.255275 
L 562.877031 19.255275 
L 565.811647 19.740576 
L 568.746262 20.709224 
L 571.680877 22.157319 
L 574.615492 24.07903 
L 577.550107 26.466618 
L 580.484723 29.310469 
L 583.419338 32.599133 
L 586.353953 36.319367 
L 589.288568 40.456192 
L 592.223183 44.992949 
L 595.157798 49.91137 
L 598.092414 55.191651 
L 601.027029 60.812531 
L 603.961644 66.751375 
L 606.896259 72.98427 
L 609.830874 79.486119 
L 612.765489 86.23074 
L 615.700105 93.190976 
L 618.63472 100.338801 
L 621.569335 107.645431 
L 624.50395 115.081447 
L 627.438565 122.616906 
L 630.37318 130.221465 
L 633.307796 137.864504 
L 636.242411 145.515246 
L 639.177026 153.142885 
L 642.111641 160.716707 
L 645.046256 168.206215 
L 647.980871 175.581252 
L 650.915487 182.81212 
L 653.850102 189.869703 
L 656.784717 196.725583 
L 659.719332 203.352155 
L 662.653947 209.722734 
L 665.588562 215.811669 
L 668.523178 221.594442 
L 671.457793 227.047768 
L 674.392408 232.149688 
L 677.327023 236.879659 
L 680.261638 241.218634 
L 683.196254 245.149142 
L 686.130869 248.655356 
L 689.065484 251.723158 
L 692.000099 254.340196 
L 694.934714 256.49593 
L 697.869329 258.181682 
L 700.803945 259.390662 
L 703.73856 260.118003 
L 706.673175 260.360776 
" clip-path="url(#pd1a517a191)" style="fill: none; stroke: #2ca02c; stroke-width: 1.5; stroke-linecap: square"/>
   </g>
   <g id="patch_8">
    <path d="M 401.619928 272.416051 
L 401.619928 7.2 
" style="fill: none; stroke: #000000; stroke-width: 0.8; stroke-linejoin: miter; stroke-linecap: square"/>
   </g>
   <g id="patch_9">
    <path d="M 721.19952 272.416051 
L 721.19952 7.2 
" style="fill: none; stroke: #000000; stroke-width: 0.8; stroke-linejoin: miter; stroke-linecap: square"/>
   </g>
   <g id="patch_10">
    <path d="M 401.619928 272.416051 
L 721.19952 272.416051 
" style="fill: none; stroke: #000000; stroke-width: 0.8; stroke-linejoin: miter; stroke-linecap: square"/>
   </g>
   <g id="patch_11">
    <path d="M 401.619928 7.2 
L 721.19952 7.2 
" style="fill: none; stroke: #000000; stroke-width: 0.8; stroke-linejoin: miter; stroke-linecap: square"/>
   </g>
   <g id="axes_3">
    <g id="patch_12">
     <path d="M 513.472785 219.37284 
L 609.346663 219.37284 
L 609.346663 139.808025 
L 513.472785 139.808025 
z
" style="fill: #ffffff"/>
    </g>
    <g id="matplotlib.axis_5">
     <g id="xtick_15">
      <g id="line2d_39">
       <g>
        <use xlink:href="#md3fcdf53cc" x="526.730629" y="219.37284" style="stroke: #000000; stroke-width: 0.8"/>
       </g>
      </g>
      <g id="text_25">
       <!-- $\mathdefault{−2.5}$ -->
       <g transform="translate(511.570546 233.250565)scale(0.15 -0.15)">
        <use xlink:href="#CMSY10-0" transform="scale(0.996264)"/>
        <use xlink:href="#CMR17-32" transform="translate(77.487468 0)scale(0.996264)"/>
        <use xlink:href="#CMMI12-3a" transform="translate(123.177945 0)scale(0.996264)"/>
        <use xlink:href="#CMR17-35" transform="translate(150.275122 0)scale(0.996264)"/>
       </g>
      </g>
     </g>
     <g id="xtick_16">
      <g id="line2d_40">
       <g>
        <use xlink:href="#md3fcdf53cc" x="561.409724" y="219.37284" style="stroke: #000000; stroke-width: 0.8"/>
       </g>
      </g>
      <g id="text_26">
       <!-- $\mathdefault{0.0}$ -->
       <g transform="translate(552.061198 233.250565)scale(0.15 -0.15)">
        <use xlink:href="#CMR17-30" transform="scale(0.996264)"/>
        <use xlink:href="#CMMI12-3a" transform="translate(45.690477 0)scale(0.996264)"/>
        <use xlink:href="#CMR17-30" transform="translate(72.787654 0)scale(0.996264)"/>
       </g>
      </g>
     </g>
     <g id="xtick_17">
      <g id="line2d_41">
       <g>
        <use xlink:href="#md3fcdf53cc" x="596.088818" y="219.37284" style="stroke: #000000; stroke-width: 0.8"/>
       </g>
      </g>
      <g id="text_27">
       <!-- $\mathdefault{2.5}$ -->
       <g transform="translate(586.740292 233.250565)scale(0.15 -0.15)">
        <use xlink:href="#CMR17-32" transform="scale(0.996264)"/>
        <use xlink:href="#CMMI12-3a" transform="translate(45.690477 0)scale(0.996264)"/>
        <use xlink:href="#CMR17-35" transform="translate(72.787654 0)scale(0.996264)"/>
       </g>
      </g>
     </g>
    </g>
    <g id="matplotlib.axis_6">
     <g id="ytick_11">
      <g id="line2d_42">
       <g>
        <use xlink:href="#ma7bec31fbe" x="513.472785" y="215.760811" style="stroke: #000000; stroke-width: 0.8"/>
       </g>
      </g>
      <g id="text_28">
       <!-- $\mathdefault{−1}$ -->
       <g transform="translate(491.033432 220.949673)scale(0.15 -0.15)">
        <use xlink:href="#CMSY10-0" transform="scale(0.996264)"/>
        <use xlink:href="#CMR17-31" transform="translate(77.487468 0)scale(0.996264)"/>
       </g>
      </g>
     </g>
     <g id="ytick_12">
      <g id="line2d_43">
       <g>
        <use xlink:href="#ma7bec31fbe" x="513.472785" y="179.590433" style="stroke: #000000; stroke-width: 0.8"/>
       </g>
      </g>
      <g id="text_29">
       <!-- $\mathdefault{0}$ -->
       <g transform="translate(502.656547 184.779295)scale(0.15 -0.15)">
        <use xlink:href="#CMR17-30" transform="scale(0.996264)"/>
       </g>
      </g>
     </g>
     <g id="ytick_13">
      <g id="line2d_44">
       <g>
        <use xlink:href="#ma7bec31fbe" x="513.472785" y="143.420055" style="stroke: #000000; stroke-width: 0.8"/>
       </g>
      </g>
      <g id="text_30">
       <!-- $\mathdefault{1}$ -->
       <g transform="translate(502.656547 148.608917)scale(0.15 -0.15)">
        <use xlink:href="#CMR17-31" transform="scale(0.996264)"/>
       </g>
      </g>
     </g>
    </g>
    <g id="line2d_45">
     <path d="M 517.830689 179.590433 
L 518.711073 181.8845 
L 519.591458 184.16933 
L 520.471842 186.435722 
L 521.352227 188.67455 
L 522.232611 190.876801 
L 523.112996 193.033604 
L 523.99338 195.136277 
L 524.873765 197.176353 
L 525.75415 199.145616 
L 526.634534 201.036137 
L 527.514919 202.840304 
L 528.395303 204.550851 
L 529.275688 206.160893 
L 530.156072 207.663944 
L 531.036457 209.053953 
L 531.916841 210.325323 
L 532.797226 211.472934 
L 533.677611 212.492166 
L 534.557995 213.378914 
L 535.43838 214.129608 
L 536.318764 214.741225 
L 537.199149 215.211301 
L 538.079533 215.537946 
L 538.959918 215.719842 
L 539.840302 215.756258 
L 540.720687 215.647047 
L 541.601071 215.392648 
L 542.481456 214.994087 
L 543.361841 214.452968 
L 544.242225 213.77147 
L 545.12261 212.952336 
L 546.002994 211.998866 
L 546.883379 210.914899 
L 547.763763 209.704799 
L 548.644148 208.373439 
L 549.524532 206.926181 
L 550.404917 205.36885 
L 551.285302 203.70772 
L 552.165686 201.949477 
L 553.046071 200.101202 
L 553.926455 198.170338 
L 554.80684 196.164659 
L 555.687224 194.092242 
L 556.567609 191.961431 
L 557.447993 189.780806 
L 558.328378 187.559148 
L 559.208763 185.305403 
L 560.089147 183.028646 
L 560.969532 180.738044 
L 561.849916 178.442822 
L 562.730301 176.15222 
L 563.610685 173.875463 
L 564.49107 171.621718 
L 565.371454 169.40006 
L 566.251839 167.219435 
L 567.132223 165.088624 
L 568.012608 163.016206 
L 568.892993 161.010527 
L 569.773377 159.079663 
L 570.653762 157.231389 
L 571.534146 155.473146 
L 572.414531 153.812015 
L 573.294915 152.254685 
L 574.1753 150.807426 
L 575.055684 149.476067 
L 575.936069 148.265967 
L 576.816454 147.181999 
L 577.696838 146.228529 
L 578.577223 145.409396 
L 579.457607 144.727898 
L 580.337992 144.186778 
L 581.218376 143.788217 
L 582.098761 143.533819 
L 582.979145 143.424608 
L 583.85953 143.461024 
L 584.739915 143.64292 
L 585.620299 143.969564 
L 586.500684 144.439641 
L 587.381068 145.051258 
L 588.261453 145.801952 
L 589.141837 146.6887 
L 590.022222 147.707932 
L 590.902606 148.855543 
L 591.782991 150.126913 
L 592.663375 151.516922 
L 593.54376 153.019973 
L 594.424145 154.630014 
L 595.304529 156.340562 
L 596.184914 158.144729 
L 597.065298 160.03525 
L 597.945683 162.004513 
L 598.826067 164.044588 
L 599.706452 166.147261 
L 600.586836 168.304065 
L 601.467221 170.506315 
L 602.347606 172.745144 
L 603.22799 175.011536 
L 604.108375 177.296366 
L 604.988759 179.590433 
" clip-path="url(#pe5a1592e9b)" style="fill: none; stroke: #ff7f0e; stroke-width: 1.5; stroke-linecap: square"/>
    </g>
    <g id="patch_13">
     <path d="M 513.472785 219.37284 
L 513.472785 139.808025 
" style="fill: none; stroke: #000000; stroke-width: 0.8; stroke-linejoin: miter; stroke-linecap: square"/>
    </g>
    <g id="patch_14">
     <path d="M 609.346663 219.37284 
L 609.346663 139.808025 
" style="fill: none; stroke: #000000; stroke-width: 0.8; stroke-linejoin: miter; stroke-linecap: square"/>
    </g>
    <g id="patch_15">
     <path d="M 513.472785 219.37284 
L 609.346663 219.37284 
" style="fill: none; stroke: #000000; stroke-width: 0.8; stroke-linejoin: miter; stroke-linecap: square"/>
    </g>
    <g id="patch_16">
     <path d="M 513.472785 139.808025 
L 609.346663 139.808025 
" style="fill: none; stroke: #000000; stroke-width: 0.8; stroke-linejoin: miter; stroke-linecap: square"/>
    </g>
   </g>
  </g>
 </g>
 <defs>
  <clipPath id="pa4fd8606dd">
   <rect x="41.020168" y="7.2" width="319.579592" height="265.216051"/>
  </clipPath>
  <clipPath id="pd1a517a191">
   <rect x="401.619928" y="7.2" width="319.579592" height="265.216051"/>
  </clipPath>
  <clipPath id="pe5a1592e9b">
   <rect x="513.472785" y="139.808025" width="95.873878" height="79.564815"/>
  </clipPath>
 </defs>
</svg>
